<svg xmlns="http://www.w3.org/2000/svg" fill="none" viewBox="0 0 977 250" height="250" width="977">
<g clip-path="url(#clip0_19_17)">
<path fill="black" d="M0.499908 2.50427C9.65595e-06 3.48538 0 4.76972 0 7.3384V239.627C0 242.196 9.65595e-06 243.48 0.499908 244.461C0.939632 245.324 1.64127 246.026 2.50427 246.466C3.48538 246.965 4.76973 246.965 7.33841 246.965H24.4143C26.983 246.965 28.2673 246.965 29.2484 246.466C30.1114 246.026 30.8131 245.324 31.2528 244.461C31.7527 243.48 31.7527 242.196 31.7527 239.627V231.428C46.2489 243.048 64.6496 249.999 84.6739 249.999C131.438 249.999 169.348 212.089 169.348 165.325C169.348 118.561 131.438 80.6514 84.6739 80.6514C64.6496 80.6514 46.2489 87.6022 31.7527 99.2228V7.3384C31.7527 4.76972 31.7527 3.48538 31.2528 2.50427C30.8131 1.64127 30.1114 0.939622 29.2484 0.499899C28.2673 0 26.983 0 24.4143 0H7.33841C4.76973 0 3.48538 0 2.50427 0.499899C1.64127 0.939622 0.939632 1.64127 0.499908 2.50427ZM31.7527 165.325C31.7527 194.553 55.4463 218.246 84.6739 218.246C113.901 218.246 137.595 194.553 137.595 165.325C137.595 136.098 113.901 112.404 84.6739 112.404C55.4463 112.404 31.7527 136.098 31.7527 165.325Z" clip-rule="evenodd" fill-rule="evenodd"></path>
<path fill="black" d="M830.277 87.8137C829.778 88.7948 829.778 90.0793 829.778 92.6479V172.382C829.701 177.695 828.57 182.947 826.459 187.859C824.27 192.952 821.062 197.578 817.017 201.476C815.875 202.576 814.673 203.612 813.416 204.58C810.044 207.606 806.213 210.054 802.07 211.822C797.045 213.968 791.659 215.072 786.219 215.072C780.78 215.072 775.393 213.968 770.368 211.822C766.219 210.051 762.383 207.599 759.007 204.567C757.757 203.603 756.56 202.571 755.423 201.476C751.379 197.578 748.171 192.952 745.982 187.859C743.87 182.947 742.747 177.695 742.671 172.382H742.661V92.6513C742.661 90.0826 742.66 88.7983 742.161 87.8172C741.721 86.9542 741.019 86.2525 740.156 85.8128C739.175 85.3129 737.891 85.313 735.322 85.313H718.246C715.678 85.313 714.393 85.3129 713.412 85.8128C712.549 86.2525 711.847 86.9542 711.408 87.8172C710.908 88.7983 710.908 90.0826 710.908 92.6513V172.382C710.908 182.575 712.856 192.668 716.641 202.085C716.917 202.773 717.203 203.456 717.498 204.135C721.243 212.745 726.483 220.585 732.966 227.266C739.959 234.474 748.262 240.191 757.399 244.092C766.536 247.992 776.329 250 786.219 250C796.109 250 805.902 247.992 815.039 244.092C824.177 240.191 832.479 234.474 839.472 227.266C845.955 220.585 851.195 212.745 854.94 204.135C855.235 203.456 855.521 202.773 855.798 202.085C859.582 192.668 861.53 182.575 861.53 172.383V92.6479C861.53 90.0793 861.53 88.7948 861.03 87.8137C860.591 86.9507 859.889 86.2491 859.026 85.8093C858.045 85.3094 856.761 85.3094 854.192 85.3094H837.116C834.547 85.3094 833.263 85.3094 832.282 85.8093C831.419 86.2491 830.717 86.9507 830.277 87.8137Z"></path>
<path fill="black" d="M195.808 7.3384C195.808 4.76972 195.808 3.48538 196.308 2.50427C196.748 1.64127 197.45 0.939622 198.313 0.499899C199.294 0 200.578 0 203.147 0H220.223C222.791 0 224.076 0 225.057 0.499899C225.92 0.939622 226.621 1.64127 227.061 2.50427C227.561 3.48538 227.561 4.76972 227.561 7.3384V239.627C227.561 242.196 227.561 243.48 227.061 244.461C226.621 245.324 225.92 246.026 225.057 246.466C224.076 246.965 222.791 246.965 220.223 246.965H203.147C200.578 246.965 199.294 246.965 198.313 246.466C197.45 246.026 196.748 245.324 196.308 244.461C195.808 243.48 195.808 242.196 195.808 239.627V7.3384Z"></path>
<path fill="black" d="M453.858 2.50427C453.358 3.48538 453.358 4.76972 453.358 7.3384V37.031H423.652C421.083 37.031 419.799 37.031 418.818 37.5309C417.954 37.9707 417.253 38.6723 416.813 39.5353C416.313 40.5164 416.313 41.8008 416.313 44.3694V61.4453C416.313 64.014 416.313 65.2984 416.813 66.2795C417.253 67.1425 417.954 67.8441 418.818 68.2838C419.799 68.7837 421.083 68.7837 423.652 68.7837H453.358V239.627C453.358 242.196 453.358 243.48 453.858 244.461C454.298 245.324 454.999 246.026 455.862 246.466C456.843 246.965 458.128 246.965 460.696 246.965H477.772C480.341 246.965 481.625 246.965 482.607 246.466C483.47 246.026 484.171 245.324 484.611 244.461C485.111 243.48 485.111 242.196 485.111 239.627V68.7837H514.817C517.386 68.7837 518.67 68.7837 519.651 68.2838C520.514 67.8441 521.216 67.1425 521.656 66.2795C522.156 65.2984 522.156 64.014 522.156 61.4453V44.3694C522.156 41.8008 522.156 40.5164 521.656 39.5353C521.216 38.6723 520.514 37.9707 519.651 37.5309C518.67 37.031 517.386 37.031 514.817 37.031H485.111V7.3384C485.111 4.76972 485.111 3.48538 484.611 2.50427C484.171 1.64127 483.47 0.939622 482.607 0.499899C481.625 0 480.341 0 477.772 0H460.696C458.128 0 456.843 0 455.862 0.499899C454.999 0.939622 454.298 1.64127 453.858 2.50427Z"></path>
<path fill="black" d="M338.696 218.246C367.923 218.246 391.617 194.553 391.617 165.325C391.617 136.098 367.923 112.404 338.696 112.404C309.468 112.404 285.774 136.098 285.774 165.325C285.774 194.553 309.468 218.246 338.696 218.246ZM338.696 249.999C385.46 249.999 423.369 212.089 423.369 165.325C423.369 118.561 385.46 80.6514 338.696 80.6514C291.931 80.6514 254.022 118.561 254.022 165.325C254.022 212.089 291.931 249.999 338.696 249.999Z" clip-rule="evenodd" fill-rule="evenodd"></path>
<path fill="black" d="M907.922 2.50427C907.422 3.48538 907.422 4.76972 907.422 7.3384V37.031H877.715C875.147 37.031 873.862 37.031 872.881 37.5309C872.018 37.9707 871.317 38.6723 870.877 39.5353C870.377 40.5164 870.377 41.8008 870.377 44.3694V61.4453C870.377 64.014 870.377 65.2984 870.877 66.2795C871.317 67.1425 872.018 67.8441 872.881 68.2838C873.862 68.7837 875.147 68.7837 877.715 68.7837H907.422V239.627C907.422 242.196 907.422 243.48 907.922 244.461C908.361 245.324 909.063 246.026 909.926 246.466C910.907 246.965 912.192 246.965 914.76 246.965H931.836C934.405 246.965 935.689 246.965 936.67 246.466C937.533 246.026 938.235 245.324 938.675 244.461C939.175 243.48 939.174 242.196 939.174 239.627V68.7837H968.881C971.45 68.7837 972.734 68.7837 973.715 68.2838C974.578 67.8441 975.28 67.1425 975.719 66.2795C976.219 65.2984 976.219 64.014 976.219 61.4453V44.3694C976.219 41.8008 976.219 40.5164 975.719 39.5353C975.28 38.6723 974.578 37.9707 973.715 37.5309C972.734 37.031 971.45 37.031 968.881 37.031H939.174V7.3384C939.174 4.76972 939.175 3.48538 938.675 2.50427C938.235 1.64127 937.533 0.939622 936.67 0.499899C935.689 0 934.405 0 931.836 0H914.76C912.192 0 910.907 0 909.926 0.499899C909.063 0.939622 908.361 1.64127 907.922 2.50427Z"></path>
<path fill="black" d="M599.773 218.246C629.001 218.246 652.695 194.553 652.695 165.325C652.695 136.098 629.001 112.404 599.773 112.404C570.546 112.404 546.852 136.098 546.852 165.325C546.852 194.553 570.546 218.246 599.773 218.246ZM599.773 249.999C646.537 249.999 684.447 212.089 684.447 165.325C684.447 118.561 646.537 80.6514 599.773 80.6514C553.009 80.6514 515.099 118.561 515.099 165.325C515.099 212.089 553.009 249.999 599.773 249.999Z" clip-rule="evenodd" fill-rule="evenodd"></path>
</g>
<defs>
<clipPath id="clip0_19_17">
<rect fill="white" height="250" width="977"></rect>
</clipPath>
</defs>
</svg>