<svg xmlns="http://www.w3.org/2000/svg" fill="none" viewBox="0 0 482 60" height="60" width="482">
<path fill="black" d="M127.846 37.9707V57.9414H118.722L118.373 51.5475C117.092 53.8111 115.361 55.6337 113.178 57.0154C111.024 58.397 108.463 59.0879 105.495 59.0879C102.264 59.0879 99.2377 58.4852 96.4147 57.2799C93.6208 56.0453 91.1471 54.3402 88.9935 52.1648C86.869 49.9894 85.1956 47.4907 83.9732 44.6685C82.78 41.817 82.1834 38.7597 82.1834 35.4966C82.1834 32.3511 82.7655 29.3967 83.9296 26.6333C85.0937 23.8406 86.7089 21.4006 88.7752 19.3134C90.8415 17.2262 93.2279 15.5947 95.9345 14.4188C98.6702 13.2135 101.595 12.6108 104.709 12.6108C107.881 12.6108 111.655 12.9258 116.015 15.1553C120.376 17.3848 127.846 23.4143 127.846 37.9707ZM112.48 48.2393C110.588 49.5622 108.333 50.2236 105.713 50.2236C103.269 50.2236 100.984 49.6063 98.8596 48.3716C96.7642 47.1075 95.0326 45.4172 93.6648 43.3006C92.326 41.184 91.5694 38.8469 91.3948 36.2893C91.2492 33.5554 91.744 31.0713 92.879 28.8371C94.014 26.6029 95.6147 24.8244 97.681 23.5015C99.7764 22.1787 102.119 21.5172 104.709 21.5172C107.183 21.5172 109.395 22.1493 111.345 23.4133C113.295 24.648 114.852 26.3237 116.016 28.4403C117.209 30.5569 117.893 32.9087 118.068 35.4956C118.213 38.2002 117.791 40.6695 116.802 42.9037C115.841 45.1379 114.401 46.9164 112.48 48.2393Z" clip-rule="evenodd" fill-rule="evenodd"></path>
<path fill="black" d="M378.606 37.9707V57.9414H369.482L369.133 51.5475C367.853 53.8111 366.121 55.6337 363.938 57.0154C361.785 58.397 359.223 59.0879 356.255 59.0879C353.025 59.0879 349.998 58.4852 347.175 57.2799C344.381 56.0453 341.907 54.3402 339.754 52.1648C337.629 49.9894 335.956 47.4907 334.733 44.6685C333.54 41.817 332.944 38.7597 332.944 35.4966C332.944 32.3511 333.526 29.3967 334.69 26.6333C335.854 23.8406 337.469 21.4006 339.535 19.3134C341.602 17.2262 343.988 15.5947 346.695 14.4188C349.43 13.2135 352.355 12.6108 355.469 12.6108C358.641 12.6108 362.415 12.9258 366.776 15.1553C371.136 17.3848 378.606 23.4143 378.606 37.9707ZM363.24 48.2393C361.348 49.5622 359.093 50.2236 356.474 50.2236C354.029 50.2236 351.744 49.6063 349.62 48.3716C347.525 47.1075 345.793 45.4172 344.425 43.3006C343.086 41.184 342.33 38.8469 342.155 36.2893C342.01 33.5554 342.504 31.0713 343.639 28.8371C344.774 26.6029 346.375 24.8244 348.441 23.5015C350.537 22.1787 352.879 21.5172 355.47 21.5172C357.943 21.5172 360.155 22.1493 362.105 23.4133C364.055 24.648 365.612 26.3237 366.776 28.4403C367.969 30.5569 368.653 32.9087 368.828 35.4956C368.973 38.2002 368.551 40.6695 367.562 42.9037C366.601 45.1379 365.161 46.9164 363.24 48.2393Z" clip-rule="evenodd" fill-rule="evenodd"></path>
<path fill="black" d="M306.588 59.303C310.495 59.4349 314.187 58.4867 317.665 56.4583C321.446 54.2535 324.25 51.1925 326.077 47.2755C326.727 45.8607 327.234 44.425 327.597 42.9683L318.028 42.9673C317.873 43.3253 317.701 43.6766 317.513 44.0214C316.503 45.9001 315.04 47.398 313.125 48.5151C311.296 49.548 309.405 50.0907 307.452 50.1432C305.525 50.181 303.682 49.7791 301.924 48.9374C300.176 48.0556 298.637 46.8319 297.305 45.2663L326.453 28.2674C325.006 24.9703 323.093 22.1822 320.715 19.903C318.322 17.5983 315.665 15.8892 312.743 14.7757C309.807 13.6366 306.787 13.1744 303.684 13.3889C300.566 13.5779 297.558 14.5176 294.659 16.208C292.063 17.7219 289.917 19.6696 288.22 22.051C286.523 24.4324 285.336 27.0594 284.659 29.9321C283.993 32.7646 283.867 35.6895 284.281 38.7068C284.68 41.6987 285.68 44.5948 287.281 47.3953C289.391 51.0868 292.163 53.9677 295.598 56.0379C299.044 58.068 302.707 59.1564 306.588 59.303ZM315.044 26.8255L293.57 39.3487C292.835 37.2992 292.537 35.2495 292.676 33.1996C292.826 31.1096 293.41 29.1908 294.427 27.4433C295.47 25.6811 296.886 24.2782 298.675 23.2346C300.49 22.1763 302.408 21.6517 304.43 21.6608C306.462 21.6298 308.411 22.0714 310.278 22.9855C312.155 23.8595 313.744 25.1395 315.044 26.8255Z" clip-rule="evenodd" fill-rule="evenodd"></path>
<path fill="black" d="M22.5453 59.303C26.4517 59.4349 30.144 58.4867 33.6221 56.4583C37.4027 54.2535 40.2066 51.1926 42.034 47.2755C42.6845 45.8607 43.191 44.425 43.5536 42.9683L33.9853 42.9673C33.83 43.3253 33.6582 43.6766 33.4698 44.0214C32.4601 45.9001 30.9975 47.398 29.0821 48.5151C27.2528 49.548 25.3619 50.0907 23.4092 50.1432C21.4817 50.1811 19.639 49.7791 17.8809 48.9374C16.1335 48.0556 14.5939 46.8319 13.2622 45.2663L42.4104 28.2674C40.9628 24.9703 39.05 22.1822 36.6719 19.903C34.2793 17.5983 31.6221 15.8892 28.7005 14.7757C25.7643 13.6366 22.7445 13.1744 19.641 13.3889C16.523 13.5779 13.5147 14.5176 10.6163 16.208C8.02029 17.7219 5.87382 19.6696 4.17688 22.051C2.47994 24.4324 1.29307 27.0594 0.616257 29.9321C-0.0499001 32.7646 -0.175984 35.6896 0.238005 38.7068C0.637443 41.6987 1.63749 44.5948 3.23815 47.3953C5.3481 51.0868 8.1205 53.9677 11.5553 56.0379C15.0008 58.068 18.6641 59.1564 22.5453 59.303ZM31.0007 26.8255L9.52705 39.3487C8.79245 37.2992 8.49463 35.2495 8.63359 33.1996C8.78321 31.1096 9.36676 29.1908 10.3842 27.4433C11.4269 25.6811 12.843 24.2782 14.6325 23.2346C16.4472 22.1763 18.3653 21.6517 20.3868 21.6608C22.419 21.6298 24.3684 22.0714 26.2351 22.9855C28.1124 23.8595 29.701 25.1395 31.0007 26.8255Z" clip-rule="evenodd" fill-rule="evenodd"></path>
<path fill="black" d="M176.757 57.942H166.28L155.541 39.2453L148.513 47.7117V57.942H139.476V0H148.513V33.4688L164.796 13.8461H176.67L161.784 31.7931L176.757 57.942Z"></path>
<path fill="black" d="M208.02 23.018H198.853L198.809 57.942H189.729L189.773 23.018H182.832V13.8461H189.773L189.729 0H198.809L198.853 13.8461H208.02V23.018Z"></path>
<path fill="black" d="M278.509 34.8798V57.942H269.429V35.0562C269.429 32.5575 268.905 30.2792 267.857 28.2214C266.838 26.1636 265.471 24.532 263.754 23.3267C262.036 22.1214 260.13 21.5188 258.035 21.5188C255.765 21.5188 253.829 22.1214 252.229 23.3267C250.628 24.532 249.391 26.1636 248.518 28.2214C247.674 30.2792 247.252 32.5575 247.252 35.0562V57.942H238.128V0H247.209V19.0053C248.431 16.6241 250.032 14.9779 252.011 14.0666C254.019 13.1259 256.318 12.6555 258.908 12.6555C262.837 12.6555 266.256 13.6697 269.167 15.6981C272.077 17.7265 274.347 20.4311 275.977 23.8118C277.607 27.1631 278.451 30.8524 278.509 34.8798Z"></path>
<path fill="black" d="M390.265 57.942V0H399.301V57.942H390.265Z"></path>
<path fill="black" d="M433.998 23.018H424.83L424.787 57.942H415.707L415.75 23.018H408.809V13.8461H415.75L415.707 0H424.787L424.83 13.8461H433.998V23.018Z"></path>
<path fill="black" d="M482 34.8798V57.942H472.92V35.0562C472.92 32.5575 472.396 30.2792 471.348 28.2214C470.33 26.1636 468.962 24.532 467.245 23.3267C465.528 22.1214 463.621 21.5188 461.526 21.5188C459.256 21.5188 457.321 22.1214 455.72 23.3267C454.119 24.532 452.882 26.1636 452.009 28.2214C451.165 30.2792 450.743 32.5575 450.743 35.0562V57.942H441.62V0H450.7V19.0053C451.922 16.6241 453.523 14.9779 455.502 14.0666C457.51 13.1259 459.809 12.6555 462.399 12.6555C466.328 12.6555 469.747 13.6697 472.658 15.6981C475.568 17.7265 477.838 20.4311 479.468 23.8118C481.098 27.1631 481.942 30.8524 482 34.8798Z"></path>
<path fill-opacity="0.65" fill="black" d="M47.5464 18.5346C46.6428 19.5898 46.7474 21.1937 47.7801 22.1171L62.4341 35.2189L77.088 22.1171C78.1207 21.1937 78.2254 19.5898 77.3217 18.5346L74.0494 14.7132C73.1458 13.658 71.5761 13.5511 70.5434 14.4744L62.4341 21.7248L54.3248 14.4744C53.292 13.5511 51.7223 13.658 50.8187 14.7132L47.5464 18.5346ZM47.5464 55.3117C46.6428 54.2564 46.7474 52.6525 47.7801 51.7291L62.4341 38.6274L77.088 51.7291C78.1207 52.6525 78.2254 54.2564 77.3218 55.3117L74.0494 59.133C73.1458 60.1882 71.5761 60.2952 70.5434 59.3718L62.4341 52.1215L54.3248 59.3718C53.292 60.2952 51.7223 60.1882 50.8187 59.133L47.5464 55.3117Z" clip-rule="evenodd" fill-rule="evenodd"></path>
</svg>
