<svg xmlns="http://www.w3.org/2000/svg" fill="none" viewBox="0 0 679 193" height="193" width="679">
<path fill="black" d="M0.0192871 96.6826V192.683H13.3526H26.686V150.016V107.349H47.3526H68.0193V150.016V192.683H80.686H93.3526V96.6826V0.682607H80.686H68.0193V38.6826V76.6826H47.3526H26.686V38.6826V0.682607H13.3526H0.0192871V96.6826Z"></path>
<path fill="black" d="M104.019 96.6829V192.683H147.353C171.219 192.683 190.686 192.55 190.686 192.283C190.686 192.016 193.086 179.883 196.019 165.35C198.953 150.816 201.353 138.683 201.353 138.416C201.353 138.15 210.019 138.016 220.686 138.016C231.353 138.016 240.019 138.283 240.019 138.683C240.019 139.483 248.953 185.083 250.019 189.75C250.686 192.55 251.353 192.683 262.686 192.683C276.419 192.683 275.753 193.483 272.686 179.616C271.619 174.683 265.886 147.616 260.019 119.35C254.153 91.0829 248.419 63.7495 247.219 58.6829C246.153 53.4829 242.953 38.5495 240.153 25.3495L235.219 1.34952L220.553 0.949523L206.019 0.549523L196.953 43.6162C191.886 67.3495 184.286 103.75 179.886 124.683C175.486 145.616 171.619 163.75 171.219 164.95C170.553 167.083 168.419 167.35 150.686 167.35C131.086 167.35 130.686 167.35 130.019 164.283C129.619 162.683 129.486 149.35 129.619 134.683L130.019 108.016L149.753 107.616L169.353 107.216V92.0162V76.8162L149.753 76.4162L130.019 76.0162V51.3495V26.6829L151.753 26.2829L173.353 26.0162V13.3495V0.682856H138.686H104.019V96.6829ZM228.019 75.0829C231.753 93.6162 234.686 109.216 234.686 110.016C234.686 110.816 229.353 111.35 220.686 111.35C210.153 111.35 206.686 110.95 206.686 109.616C206.686 108.683 209.619 92.9495 213.353 74.6829C216.953 56.2829 220.019 41.0829 220.019 40.8162C220.019 40.5495 220.286 40.5495 220.686 40.9495C221.086 41.3495 224.419 56.6829 228.019 75.0829Z"></path>
<path fill="black" d="M246.686 2.41594C246.686 3.48261 249.353 17.4826 252.686 33.4826C267.219 103.216 285.353 191.349 285.353 192.283C285.353 192.549 291.886 192.683 299.886 192.683H314.286L315.086 188.416C315.486 186.016 319.486 166.283 324.019 144.683C328.553 123.083 332.953 101.083 334.019 96.0159C335.086 90.8159 339.219 70.4159 343.353 50.6826C350.819 14.8159 353.353 2.14927 353.353 1.08261C353.353 0.815941 347.219 0.815941 339.886 0.949274L326.286 1.34927L321.353 26.6826C318.686 40.5493 312.953 70.1493 308.553 92.2826C304.286 114.549 300.419 132.683 299.886 132.683C299.486 132.683 298.419 129.216 297.619 124.949C293.219 101.883 283.219 50.0159 278.819 27.3493L273.753 1.34927L260.153 0.949274C249.353 0.682607 246.686 0.949274 246.686 2.41594Z"></path>
<path fill="black" d="M358.953 6.94927C358.153 10.4159 356.553 18.4159 355.486 24.6826L353.353 36.0159L370.019 85.6159L386.686 135.349V164.016V192.683H401.353H416.019V163.483V134.283L436.686 73.2159C448.019 39.7493 457.619 11.8826 458.019 11.6159C458.419 11.2159 458.686 51.7493 458.686 101.749V192.683H488.019C504.019 192.683 520.153 192.016 523.886 191.216C536.553 188.549 546.553 176.016 551.486 156.683C554.553 144.416 553.619 118.949 549.486 108.416C546.419 100.416 539.753 93.3493 534.019 91.8826C529.619 90.8159 529.886 90.0159 535.886 85.7493C539.219 83.4826 542.419 79.4826 544.819 74.4159C548.553 67.0826 548.686 65.8826 548.686 48.6826C548.553 34.8159 548.019 29.3493 546.286 24.6826C542.553 15.2159 537.753 9.34927 530.286 5.21594L523.353 1.34927L476.686 0.949274L430.019 0.549274L423.486 22.2826C403.219 89.3493 401.619 94.6826 400.553 93.6159C400.153 93.2159 393.619 72.2826 386.153 47.0826L372.419 1.34927L366.286 0.949274L360.286 0.549274L358.953 6.94927ZM513.219 25.7493C519.886 29.0826 521.619 35.2159 521.086 52.8159C520.419 74.0159 516.419 78.0159 496.019 78.0159H485.353V50.6826V23.3493H497.086C505.486 23.3493 509.886 24.0159 513.219 25.7493ZM515.753 107.349C521.219 110.683 523.486 116.016 524.686 128.283C526.019 141.349 523.486 154.416 518.553 159.883C514.953 164.016 514.686 164.016 500.153 164.416L485.353 164.949V134.816V104.683H498.419C509.086 104.683 512.153 105.216 515.753 107.349Z"></path>
<path fill="black" d="M562.686 96.6826V192.683H575.353H588.019V96.6826V0.682607H575.353H562.686V96.6826Z"></path>
<path fill="black" d="M594.952 13.6159L595.352 26.6826L609.752 27.0826L624.019 27.4826V110.016V192.683H636.686H649.352V110.016V27.3493H664.019H678.686V14.0159V0.682607H636.686H594.552L594.952 13.6159Z"></path>
</svg>
