<svg xmlns="http://www.w3.org/2000/svg" fill="none" viewBox="0 0 165 30" height="30" width="165">
<path fill="#1A1A1A" d="M0 24.3063V0.499445H3.00161V21.5427H15.5083V24.3063H0Z"></path>
<path fill="#1A1A1A" d="M16.5659 24.3063L25.3373 0.499445H28.7058L37.5105 24.3063H34.2421L31.7074 17.0477H22.2023L19.6342 24.3063H16.5659ZM25.9043 6.62597L23.0694 14.6171H30.8736L28.1388 6.62597L27.0716 3.26304H27.0049C26.5824 4.59489 26.2155 5.71587 25.9043 6.62597Z"></path>
<path fill="#1A1A1A" d="M40.0931 24.3063V0.499445H43.0947V12.3196L54.8344 0.499445H58.6031L48.9646 10.0222L59.4035 24.3063H55.9016L46.9301 12.0533L43.0947 15.8824V24.3063H40.0931Z"></path>
<path fill="#1A1A1A" d="M85.542 24.3063L84.6749 21.1765H84.6082C82.8739 23.596 80.3948 24.8058 77.1708 24.8058C73.8357 24.8058 71.1343 23.6626 69.0665 21.3762C66.9987 19.0899 65.9648 16.1265 65.9648 12.4861C65.9648 8.84573 66.9654 5.86015 68.9664 3.52941C70.9897 1.17647 73.8135 0 77.4377 0C80.1502 0 82.3403 0.688124 84.0078 2.06437C85.6976 3.41842 86.7426 5.28302 87.1429 7.65816H84.0412C83.7077 6.03774 82.974 4.79467 81.84 3.92897C80.7061 3.04107 79.2164 2.59711 77.3709 2.59711C74.6139 2.59711 72.535 3.50721 71.1343 5.32741C69.7335 7.14761 69.0331 9.53385 69.0331 12.4861C69.0331 15.394 69.8002 17.7469 71.3344 19.5449C72.8685 21.3208 74.8474 22.2087 77.2709 22.2087C79.6055 22.2087 81.3842 21.5205 82.6071 20.1443C83.8522 18.768 84.4748 17.0144 84.4748 14.8835V14.3174H77.3042V11.7203H87.4764V24.3063H85.542Z"></path>
<path fill="#1A1A1A" d="M104.759 24.4728C103.047 24.4728 102.057 23.6182 101.79 21.909H101.757C100.334 23.7292 98.4218 24.6393 96.0205 24.6393C94.3085 24.6393 92.9078 24.2286 91.8183 23.4073C90.7288 22.586 90.1841 21.3984 90.1841 19.8446C90.1841 19.0455 90.3064 18.3574 90.5509 17.7802C90.8177 17.1809 91.1513 16.7037 91.5515 16.3485C91.9517 15.9711 92.4964 15.6493 93.1857 15.3829C93.8972 15.0943 94.5753 14.8835 95.2201 14.7503C95.8649 14.5949 96.6876 14.4395 97.6881 14.2841C98.3329 14.1953 98.7887 14.1287 99.0555 14.0844C99.3445 14.0178 99.7114 13.929 100.156 13.818C100.601 13.6848 100.912 13.5405 101.09 13.3851C101.268 13.2297 101.435 13.0189 101.59 12.7525C101.746 12.4861 101.824 12.1754 101.824 11.8202C101.824 10.8435 101.479 10.0999 100.79 9.58934C100.123 9.0566 99.1778 8.79023 97.9549 8.79023C95.1756 8.79023 93.7415 10.0555 93.6526 12.586H91.0512C91.0957 10.8324 91.696 9.42286 92.8522 8.35738C94.0306 7.2919 95.7204 6.75916 97.9216 6.75916C102.168 6.75916 104.292 8.57936 104.292 12.2198V20.4107C104.292 21.1654 104.414 21.6981 104.659 22.0089C104.925 22.3196 105.414 22.3973 106.126 22.242H106.226V24.2064C105.781 24.384 105.292 24.4728 104.759 24.4728ZM96.6209 22.5749C98.2884 22.5749 99.578 22.0977 100.49 21.1432C101.401 20.1665 101.857 19.101 101.857 17.9467V15.0166C101.034 15.5272 99.7225 15.9489 97.9216 16.2819C97.2545 16.4151 96.732 16.5261 96.354 16.6149C95.9761 16.6815 95.5425 16.8147 95.0534 17.0144C94.5642 17.192 94.1973 17.3918 93.9528 17.6138C93.7082 17.8357 93.497 18.1354 93.3191 18.5128C93.1412 18.8679 93.0523 19.2897 93.0523 19.778C93.0523 21.6426 94.2418 22.5749 96.6209 22.5749Z"></path>
<path fill="#1A1A1A" d="M108.319 24.3063V0.499445H111.021V24.3063H108.319Z"></path>
<path fill="#1A1A1A" d="M114.898 24.3063V0.499445H117.6V24.3063H114.898Z"></path>
<path fill="#1A1A1A" d="M128.748 24.7725C126.191 24.7725 124.157 23.9179 122.645 22.2087C121.155 20.4772 120.41 18.313 120.41 15.7159C120.41 13.1632 121.166 11.0211 122.678 9.28968C124.212 7.53607 126.18 6.65927 128.581 6.65927C131.116 6.65927 133.073 7.54717 134.451 9.32297C135.83 11.0766 136.519 13.4184 136.519 16.3485H123.178C123.29 18.1687 123.823 19.6559 124.779 20.8102C125.758 21.9423 127.08 22.5083 128.748 22.5083C131.327 22.5083 132.917 21.3319 133.517 18.9789H136.152C135.752 20.8213 134.907 22.2531 133.617 23.2741C132.328 24.273 130.705 24.7725 128.748 24.7725ZM132.183 10.2553C131.316 9.27858 130.115 8.79023 128.581 8.79023C127.047 8.79023 125.824 9.30078 124.913 10.3219C124.023 11.343 123.467 12.6748 123.245 14.3174H133.617C133.528 12.586 133.05 11.232 132.183 10.2553Z"></path>
<path fill="#1A1A1A" d="M141.862 7.09212V9.9556H141.929C142.484 9.0455 143.207 8.31299 144.096 7.75805C144.986 7.18091 145.975 6.89234 147.065 6.89234C147.465 6.89234 147.832 6.95894 148.165 7.09212V9.68923H148.065C147.732 9.57825 147.331 9.52275 146.865 9.52275C145.486 9.52275 144.308 10.0111 143.329 10.9878C142.351 11.9423 141.862 13.1964 141.862 14.7503V24.3063H139.16V7.09212H141.862Z"></path>
<path fill="#1A1A1A" d="M152.793 30C151.771 30 150.959 29.8779 150.359 29.6337V27.2364H150.492C150.937 27.4806 151.548 27.6027 152.327 27.6027C152.927 27.6027 153.427 27.4473 153.827 27.1365C154.228 26.8479 154.583 26.3041 154.895 25.505L155.562 23.8069L148.825 7.09212H151.76L155.828 17.8135L156.996 21.1765H157.062C157.463 19.889 157.841 18.768 158.196 17.8135L162.132 7.09212H165L157.629 25.7048C156.962 27.3918 156.273 28.5239 155.562 29.101C154.85 29.7003 153.927 30 152.793 30Z"></path>
</svg>
