<svg width="409" height="207" viewBox="0 0 409 207" fill="none" xmlns="http://www.w3.org/2000/svg">
<path d="M0.400391 0.590088V154H68.9404V131.92H23.8604V0.590088H0.400391Z" fill="black"></path>
<path d="M126.568 54.6401C97.358 54.6401 74.818 75.8001 74.818 105.7C74.818 135.37 97.358 156.99 126.568 156.99C155.778 156.99 178.318 135.37 178.318 105.7C178.318 75.8001 155.778 54.6401 126.568 54.6401ZM126.568 136.75C108.858 136.75 97.818 124.56 97.818 105.93C97.818 83.8501 112.308 74.8801 126.568 74.8801C140.828 74.8801 155.318 83.8501 155.318 105.93C155.318 124.56 144.278 136.75 126.568 136.75Z" fill="black"></path>
<path d="M241.631 54.6401C212.421 54.6401 189.881 75.8001 189.881 105.7C189.881 135.37 212.421 156.99 241.631 156.99C270.841 156.99 293.381 135.37 293.381 105.7C293.381 75.8001 270.841 54.6401 241.631 54.6401ZM241.631 136.75C223.921 136.75 212.881 124.56 212.881 105.93C212.881 83.8501 227.371 74.8801 241.631 74.8801C255.891 74.8801 270.381 83.8501 270.381 105.93C270.381 124.56 259.341 136.75 241.631 136.75Z" fill="black"></path>
<path d="M332.544 142.73C342.664 155.15 356.234 156.99 361.524 156.99C384.524 156.99 408.444 137.67 408.444 105.01C408.444 74.1901 386.824 54.6401 361.294 54.6401C351.634 54.6401 340.824 57.8601 332.544 67.7501V57.1701H310.004V206.67H332.544V142.73ZM358.534 74.8801C374.864 74.8801 385.444 88.6801 385.444 105.93C385.444 122.72 374.864 136.75 358.534 136.75C344.274 136.75 331.164 126.4 331.164 106.16C331.164 85.0001 344.274 74.8801 358.534 74.8801Z" fill="black"></path>
</svg>