<svg xmlns="http://www.w3.org/2000/svg" fill="none" viewBox="0 0 165 30" height="30" width="165">
<path fill="#1A1A1A" d="M55.1786 0.133929C55.1786 0.207589 54.9978 0.267857 54.7768 0.267857C54.5558 0.267857 54.375 0.328125 54.375 0.401786C54.375 0.475446 54.1942 0.535714 53.9732 0.535714C53.7522 0.535714 53.5714 0.595982 53.5714 0.669643C53.5714 0.743304 53.3906 0.803571 53.1696 0.803571C52.9487 0.803571 52.7679 0.863839 52.7679 0.9375C52.7679 1.01116 52.5871 1.07143 52.3661 1.07143C52.1451 1.07143 51.9643 1.1317 51.9643 1.20536C51.9643 1.27902 51.7835 1.33929 51.5625 1.33929C51.3415 1.33929 51.1607 1.39955 51.1607 1.47321C51.1607 1.54688 50.9799 1.60714 50.7589 1.60714C50.5379 1.60714 50.3571 1.66741 50.3571 1.74107C50.3571 1.81473 50.1763 1.875 49.9554 1.875C49.7344 1.875 49.5536 1.93527 49.5536 2.00893C49.5536 2.08259 49.3728 2.14286 49.1518 2.14286C48.9308 2.14286 48.75 2.20312 48.75 2.27679C48.75 2.35045 48.6295 2.41071 48.4821 2.41071C48.3348 2.41071 48.2143 2.44513 48.2143 2.48719C48.2143 2.64442 48.6044 2.94643 48.8075 2.94643C48.9232 2.94643 49.0179 3.0067 49.0179 3.08036C49.0179 3.15402 49.1384 3.21429 49.2857 3.21429C49.433 3.21429 49.5536 3.27455 49.5536 3.34821C49.5536 3.42188 49.6741 3.48214 49.8214 3.48214C49.9688 3.48214 50.0893 3.54241 50.0893 3.61607C50.0893 3.68973 50.1966 3.75 50.3275 3.75C50.4587 3.75 50.6527 3.87054 50.7589 4.01786C50.8651 4.16518 51.0592 4.28571 51.1903 4.28571C51.3213 4.28571 51.4286 4.34598 51.4286 4.41964C51.4286 4.4933 51.5491 4.55357 51.6964 4.55357C51.9621 4.55357 51.9643 4.6429 51.9643 15.7426V26.9318L51.6355 27.2605C51.4547 27.4413 51.2391 27.5893 51.1563 27.5893C51.0735 27.5893 50.7742 27.8304 50.4911 28.125C50.208 28.4196 49.9094 28.6607 49.8275 28.6607C49.6797 28.6607 48.75 29.5236 48.75 29.6608C48.75 29.7 51.0402 29.7321 53.8393 29.7321C56.6384 29.7321 58.9286 29.6993 58.9286 29.6591C58.9286 29.5211 58.271 28.9286 58.1179 28.9286C58.0335 28.9286 57.7957 28.7478 57.5893 28.5268C57.3829 28.3058 57.1464 28.125 57.0639 28.125C56.9814 28.125 56.5836 27.7949 56.1801 27.3913L55.4464 26.6575V13.3288C55.4464 4.53228 55.4009 0 55.3125 0C55.2388 0 55.1786 0.0602679 55.1786 0.133929ZM94.2857 0.133929C94.2857 0.207589 94.1049 0.267857 93.8839 0.267857C93.663 0.267857 93.4821 0.328125 93.4821 0.401786C93.4821 0.475446 93.3013 0.535714 93.0804 0.535714C92.8594 0.535714 92.6786 0.595982 92.6786 0.669643C92.6786 0.743304 92.4978 0.803571 92.2768 0.803571C92.0558 0.803571 91.875 0.863839 91.875 0.9375C91.875 1.01116 91.6942 1.07143 91.4732 1.07143C91.2522 1.07143 91.0714 1.1317 91.0714 1.20536C91.0714 1.27902 90.8906 1.33929 90.6696 1.33929C90.4487 1.33929 90.2679 1.39955 90.2679 1.47321C90.2679 1.54688 90.0871 1.60714 89.8661 1.60714C89.6451 1.60714 89.4643 1.66741 89.4643 1.74107C89.4643 1.81473 89.2232 1.875 88.9286 1.875C88.6339 1.875 88.3929 1.93527 88.3929 2.00893C88.3929 2.08259 88.2121 2.14286 87.9911 2.14286C87.7701 2.14286 87.5893 2.20312 87.5893 2.27679C87.5893 2.35045 87.4688 2.41071 87.3214 2.41071C87.1741 2.41071 87.0536 2.47098 87.0536 2.54464C87.0536 2.6183 87.1741 2.67857 87.3214 2.67857C87.4688 2.67857 87.5893 2.73884 87.5893 2.8125C87.5893 2.88616 87.7098 2.94643 87.8571 2.94643C88.0045 2.94643 88.125 3.0067 88.125 3.08036C88.125 3.15402 88.2323 3.21429 88.3633 3.21429C88.4944 3.21429 88.6884 3.33482 88.7946 3.48214C88.9009 3.62946 89.0949 3.75 89.226 3.75C89.357 3.75 89.4643 3.81027 89.4643 3.88393C89.4643 3.95759 89.5848 4.01786 89.7321 4.01786C89.8795 4.01786 90 4.07812 90 4.15179C90 4.22545 90.0931 4.28571 90.2069 4.28571C90.3208 4.28571 90.5618 4.43371 90.7426 4.61451L91.0714 4.94317V17.4717C91.0714 24.3623 91.1184 30 91.1758 30C91.2332 30 91.367 29.8795 91.4732 29.7321C91.5794 29.5848 91.7735 29.4643 91.9046 29.4643C92.0356 29.4643 92.1429 29.404 92.1429 29.3304C92.1429 29.2567 92.2501 29.1964 92.3811 29.1964C92.5122 29.1964 92.7063 29.0759 92.8125 28.9286C92.9187 28.7812 93.0995 28.6607 93.2143 28.6607C93.3291 28.6607 93.5099 28.5402 93.6161 28.3929C93.7223 28.2455 93.9114 28.125 94.0362 28.125C94.1612 28.125 94.2904 28.0497 94.3235 27.9576C94.3642 27.844 94.4699 27.8871 94.6517 28.0915C94.7992 28.2573 95.0049 28.3929 95.109 28.3929C95.2129 28.3929 95.3849 28.5134 95.4911 28.6607C95.5973 28.808 95.7914 28.9286 95.9225 28.9286C96.0534 28.9286 96.1607 28.9888 96.1607 29.0625C96.1607 29.1362 96.2813 29.1964 96.4286 29.1964C96.5759 29.1964 96.6964 29.2567 96.6964 29.3304C96.6964 29.404 96.817 29.4643 96.9643 29.4643C97.1116 29.4643 97.2321 29.5246 97.2321 29.5982C97.2321 29.6719 97.413 29.7321 97.6339 29.7321C97.8549 29.7321 98.0357 29.7924 98.0357 29.8661C98.0357 29.9494 98.7947 30 100.045 30C101.295 30 102.054 29.9494 102.054 29.8661C102.054 29.7924 102.295 29.7321 102.589 29.7321C102.884 29.7321 103.125 29.6719 103.125 29.5982C103.125 29.5246 103.246 29.4643 103.393 29.4643C103.54 29.4643 103.661 29.404 103.661 29.3304C103.661 29.2567 103.781 29.1964 103.929 29.1964C104.076 29.1964 104.196 29.1362 104.196 29.0625C104.196 28.9888 104.317 28.9286 104.464 28.9286C104.612 28.9286 104.732 28.8683 104.732 28.7946C104.732 28.721 104.823 28.6607 104.935 28.6607C105.199 28.6607 107.411 26.4493 107.411 26.1849C107.411 26.0733 107.471 25.9821 107.545 25.9821C107.618 25.9821 107.679 25.8749 107.679 25.7439C107.679 25.6128 107.799 25.4187 107.946 25.3125C108.104 25.1991 108.214 24.9658 108.214 24.7472C108.214 24.5425 108.275 24.375 108.348 24.375C108.422 24.375 108.482 24.2545 108.482 24.1071C108.482 23.9598 108.542 23.8393 108.616 23.8393C108.69 23.8393 108.75 23.6585 108.75 23.4375C108.75 23.2165 108.81 23.0357 108.884 23.0357C108.958 23.0357 109.018 22.7344 109.018 22.3661C109.018 21.9978 109.078 21.6964 109.152 21.6964C109.236 21.6964 109.286 20.7589 109.286 19.1518C109.286 17.5446 109.236 16.6071 109.152 16.6071C109.078 16.6071 109.018 16.3661 109.018 16.0714C109.018 15.7768 108.958 15.5357 108.884 15.5357C108.81 15.5357 108.75 15.3549 108.75 15.1339C108.75 14.9129 108.69 14.7321 108.616 14.7321C108.542 14.7321 108.482 14.6116 108.482 14.4643C108.482 14.317 108.422 14.1964 108.348 14.1964C108.275 14.1964 108.214 14.0759 108.214 13.9286C108.214 13.7812 108.154 13.6607 108.08 13.6607C108.007 13.6607 107.946 13.5534 107.946 13.4225C107.946 13.2913 107.826 13.0973 107.679 12.9911C107.531 12.8849 107.411 12.72 107.411 12.6245C107.411 12.3809 105.45 10.4464 105.203 10.4464C105.091 10.4464 105 10.3862 105 10.3125C105 10.2388 104.879 10.1786 104.732 10.1786C104.585 10.1786 104.464 10.1183 104.464 10.0446C104.464 9.97098 104.283 9.91071 104.063 9.91071C103.842 9.91071 103.661 9.85045 103.661 9.77679C103.661 9.70312 103.42 9.64286 103.125 9.64286C102.83 9.64286 102.589 9.58259 102.589 9.50893C102.589 9.42951 102.098 9.375 101.384 9.375C100.67 9.375 100.179 9.42951 100.179 9.50893C100.179 9.58259 99.8772 9.64286 99.5089 9.64286C99.1406 9.64286 98.8393 9.70312 98.8393 9.77679C98.8393 9.85045 98.7188 9.91071 98.5714 9.91071C98.4241 9.91071 98.3036 9.97098 98.3036 10.0446C98.3036 10.1183 98.183 10.1786 98.0357 10.1786C97.8884 10.1786 97.7679 10.2388 97.7679 10.3125C97.7679 10.3862 97.6767 10.4464 97.5651 10.4464C97.3355 10.4464 95.0893 12.6406 95.0893 12.8648C95.0893 13.0169 94.7624 13.3929 94.6301 13.3929C94.588 13.3929 94.5536 10.3795 94.5536 6.69643C94.5536 2.32138 94.5071 0 94.4196 0C94.346 0 94.2857 0.0602679 94.2857 0.133929ZM121.071 0.133929C121.071 0.207589 120.891 0.267857 120.67 0.267857C120.449 0.267857 120.268 0.328125 120.268 0.401786C120.268 0.475446 120.087 0.535714 119.866 0.535714C119.645 0.535714 119.464 0.595982 119.464 0.669643C119.464 0.743304 119.283 0.803571 119.063 0.803571C118.842 0.803571 118.661 0.863839 118.661 0.9375C118.661 1.01116 118.48 1.07143 118.259 1.07143C118.038 1.07143 117.857 1.1317 117.857 1.20536C117.857 1.27902 117.676 1.33929 117.455 1.33929C117.234 1.33929 117.054 1.39955 117.054 1.47321C117.054 1.54688 116.873 1.60714 116.652 1.60714C116.431 1.60714 116.25 1.66741 116.25 1.74107C116.25 1.81473 116.129 1.875 115.982 1.875C115.835 1.875 115.714 1.90942 115.714 1.95147C115.714 2.10871 116.104 2.41071 116.307 2.41071C116.423 2.41071 116.518 2.47098 116.518 2.54464C116.518 2.6183 116.625 2.67857 116.756 2.67857C116.887 2.67857 117.081 2.79911 117.188 2.94643C117.294 3.09375 117.488 3.21429 117.619 3.21429C117.75 3.21429 117.857 3.27455 117.857 3.34821C117.857 3.42188 117.978 3.48214 118.125 3.48214C118.272 3.48214 118.393 3.54241 118.393 3.61607C118.393 3.68973 118.513 3.75 118.661 3.75C118.808 3.75 118.929 3.81027 118.929 3.88393C118.929 3.95759 119.049 4.01786 119.196 4.01786C119.344 4.01786 119.464 4.07812 119.464 4.15179C119.464 4.22545 119.572 4.28571 119.703 4.28571C119.834 4.28571 120.028 4.40625 120.134 4.55357C120.24 4.70089 120.434 4.82143 120.565 4.82143C120.696 4.82143 120.804 4.8817 120.804 4.95536C120.804 5.02902 120.924 5.08929 121.071 5.08929C121.219 5.08929 121.339 5.14955 121.339 5.22321C121.339 5.29688 121.4 5.35714 121.473 5.35714C121.558 5.35714 121.607 4.37504 121.607 2.67857C121.607 0.0893303 121.598 0 121.339 0C121.192 0 121.071 0.0602679 121.071 0.133929ZM161.25 0.133929C161.25 0.207589 161.069 0.267857 160.848 0.267857C160.627 0.267857 160.446 0.328125 160.446 0.401786C160.446 0.475446 160.266 0.535714 160.045 0.535714C159.824 0.535714 159.643 0.595982 159.643 0.669643C159.643 0.743304 159.462 0.803571 159.241 0.803571C159.02 0.803571 158.839 0.863839 158.839 0.9375C158.839 1.01116 158.598 1.07143 158.304 1.07143C158.009 1.07143 157.768 1.1317 157.768 1.20536C157.768 1.27902 157.587 1.33929 157.366 1.33929C157.145 1.33929 156.964 1.39955 156.964 1.47321C156.964 1.54688 156.783 1.60714 156.563 1.60714C156.342 1.60714 156.161 1.66741 156.161 1.74107C156.161 1.81473 156.04 1.875 155.893 1.875C155.746 1.875 155.625 1.90942 155.625 1.95147C155.625 2.10871 156.015 2.41071 156.218 2.41071C156.334 2.41071 156.429 2.47098 156.429 2.54464C156.429 2.6183 156.549 2.67857 156.696 2.67857C156.844 2.67857 156.964 2.73884 156.964 2.8125C156.964 2.88616 157.072 2.94643 157.203 2.94643C157.334 2.94643 157.528 3.06696 157.634 3.21429C157.74 3.36161 157.934 3.48214 158.065 3.48214C158.196 3.48214 158.304 3.54241 158.304 3.61607C158.304 3.68973 158.424 3.75 158.571 3.75C158.719 3.75 158.839 3.81027 158.839 3.88393C158.839 3.95759 158.96 4.01786 159.107 4.01786C159.254 4.01786 159.375 4.07812 159.375 4.15179C159.375 4.22545 159.482 4.28571 159.613 4.28571C159.744 4.28571 159.938 4.40625 160.045 4.55357C160.151 4.70089 160.345 4.82143 160.476 4.82143C160.607 4.82143 160.714 4.8817 160.714 4.95536C160.714 5.02902 160.835 5.08929 160.982 5.08929C161.129 5.08929 161.25 5.14955 161.25 5.22321C161.25 5.29688 161.31 5.35714 161.384 5.35714C161.469 5.35714 161.518 4.37504 161.518 2.67857C161.518 0.982098 161.469 0 161.384 0C161.31 0 161.25 0.0602679 161.25 0.133929ZM6.16071 9.50893C6.16071 9.58259 5.97991 9.64286 5.75893 9.64286C5.53795 9.64286 5.35714 9.70312 5.35714 9.77679C5.35714 9.85045 5.17634 9.91071 4.95536 9.91071C4.73438 9.91071 4.55357 9.97098 4.55357 10.0446C4.55357 10.1183 4.43304 10.1786 4.28571 10.1786C4.13839 10.1786 4.01786 10.2388 4.01786 10.3125C4.01786 10.3862 3.83705 10.4464 3.61607 10.4464C3.39509 10.4464 3.21429 10.5067 3.21429 10.5804C3.21429 10.654 3.09375 10.7143 2.94643 10.7143C2.79911 10.7143 2.67857 10.7746 2.67857 10.8482C2.67857 10.9219 2.49777 10.9821 2.27679 10.9821C2.0558 10.9821 1.875 11.0424 1.875 11.1161C1.875 11.1897 1.6942 11.25 1.47321 11.25C1.25223 11.25 1.07143 11.3103 1.07143 11.3839C1.07143 11.4576 0.950893 11.5179 0.803571 11.5179C0.65625 11.5179 0.535714 11.5781 0.535714 11.6518C0.535714 11.7254 0.415179 11.7857 0.267857 11.7857C0.120536 11.7857 0 11.8201 0 11.8622C0 12.0583 0.416786 12.3214 0.727098 12.3214C0.916473 12.3214 1.07143 12.3817 1.07143 12.4554C1.07143 12.529 1.19196 12.5893 1.33929 12.5893C1.48661 12.5893 1.60714 12.6496 1.60714 12.7232C1.60714 12.7969 1.78795 12.8571 2.00893 12.8571C2.22991 12.8571 2.41071 12.9174 2.41071 12.9911C2.41071 13.0647 2.53125 13.125 2.67857 13.125C2.82589 13.125 2.94643 13.1853 2.94643 13.2589C2.94643 13.3326 3.12723 13.3929 3.34821 13.3929C3.5692 13.3929 3.75 13.4531 3.75 13.5268C3.75 13.6004 3.87054 13.6607 4.01786 13.6607C4.19638 13.6607 4.28571 13.75 4.28571 13.9286C4.28571 14.0759 4.34598 14.1964 4.41964 14.1964C4.4933 14.1964 4.55357 14.317 4.55357 14.4643C4.55357 14.6116 4.61384 14.7321 4.6875 14.7321C4.76116 14.7321 4.82143 14.8527 4.82143 15C4.82143 15.1473 4.8817 15.2679 4.95536 15.2679C5.02902 15.2679 5.08929 15.3884 5.08929 15.5357C5.08929 15.683 5.14955 15.8036 5.22321 15.8036C5.29688 15.8036 5.35714 15.9241 5.35714 16.0714C5.35714 16.2188 5.41741 16.3393 5.49107 16.3393C5.56473 16.3393 5.625 16.4598 5.625 16.6071C5.625 16.7545 5.68527 16.875 5.75893 16.875C5.83259 16.875 5.89286 17.0558 5.89286 17.2768C5.89286 17.4978 5.95313 17.6786 6.02679 17.6786C6.10045 17.6786 6.16071 17.7991 6.16071 17.9464C6.16071 18.0938 6.22098 18.2143 6.29464 18.2143C6.3683 18.2143 6.42857 18.3348 6.42857 18.4821C6.42857 18.6295 6.48884 18.75 6.5625 18.75C6.63616 18.75 6.69643 18.8705 6.69643 19.0179C6.69643 19.1652 6.7567 19.2857 6.83036 19.2857C6.90402 19.2857 6.96429 19.4062 6.96429 19.5536C6.96429 19.7009 7.02455 19.8214 7.09821 19.8214C7.17188 19.8214 7.23214 19.942 7.23214 20.0893C7.23214 20.2366 7.29241 20.3571 7.36607 20.3571C7.43973 20.3571 7.5 20.4777 7.5 20.625C7.5 20.7723 7.56027 20.8929 7.63393 20.8929C7.70759 20.8929 7.76786 21.0134 7.76786 21.1607C7.76786 21.308 7.82813 21.4286 7.90179 21.4286C7.97545 21.4286 8.03572 21.5491 8.03572 21.6964C8.03572 21.8438 8.09598 21.9643 8.16964 21.9643C8.2433 21.9643 8.30357 22.1451 8.30357 22.3661C8.30357 22.5871 8.36384 22.7679 8.4375 22.7679C8.51116 22.7679 8.57143 22.8884 8.57143 23.0357C8.57143 23.183 8.6317 23.3036 8.70536 23.3036C8.77902 23.3036 8.83929 23.4241 8.83929 23.5714C8.83929 23.7188 8.89955 23.8393 8.97322 23.8393C9.04688 23.8393 9.10714 23.9598 9.10714 24.1071C9.10714 24.2545 9.16741 24.375 9.24107 24.375C9.31473 24.375 9.375 24.4955 9.375 24.6429C9.375 24.7902 9.43527 24.9107 9.50893 24.9107C9.58259 24.9107 9.64286 25.0312 9.64286 25.1786C9.64286 25.3259 9.70313 25.4464 9.77679 25.4464C9.85045 25.4464 9.91072 25.567 9.91072 25.7143C9.91072 25.8616 9.97098 25.9821 10.0446 25.9821C10.1183 25.9821 10.1786 26.1027 10.1786 26.25C10.1786 26.3973 10.2388 26.5179 10.3125 26.5179C10.3862 26.5179 10.4464 26.6384 10.4464 26.7857C10.4464 26.933 10.5067 27.0536 10.5804 27.0536C10.654 27.0536 10.7143 27.2344 10.7143 27.4554C10.7143 27.6763 10.7746 27.8571 10.8482 27.8571C10.9219 27.8571 10.9821 27.9777 10.9821 28.125C10.9821 28.2723 11.0424 28.3929 11.1161 28.3929C11.1897 28.3929 11.25 28.5134 11.25 28.6607C11.25 28.808 11.3103 28.9286 11.3839 28.9286C11.4576 28.9286 11.5179 29.0233 11.5179 29.139C11.5179 29.3843 11.8321 29.7321 12.0536 29.7321C12.2751 29.7321 12.5893 29.3843 12.5893 29.139C12.5893 29.0233 12.6496 28.9286 12.7232 28.9286C12.7969 28.9286 12.8571 28.808 12.8571 28.6607C12.8571 28.5134 12.9174 28.3929 12.9911 28.3929C13.0647 28.3929 13.125 28.2723 13.125 28.125C13.125 27.9777 13.1853 27.8571 13.2589 27.8571C13.3326 27.8571 13.3929 27.7366 13.3929 27.5893C13.3929 27.442 13.4531 27.3214 13.5268 27.3214C13.6004 27.3214 13.6607 27.2009 13.6607 27.0536C13.6607 26.9062 13.721 26.7857 13.7946 26.7857C13.8683 26.7857 13.9286 26.6652 13.9286 26.5179C13.9286 26.3705 13.9888 26.25 14.0625 26.25C14.1362 26.25 14.1964 26.1295 14.1964 25.9821C14.1964 25.8348 14.2567 25.7143 14.3304 25.7143C14.404 25.7143 14.4643 25.5938 14.4643 25.4464C14.4643 25.2991 14.5246 25.1786 14.5982 25.1786C14.6719 25.1786 14.7321 25.058 14.7321 24.9107C14.7321 24.7634 14.7924 24.6429 14.8661 24.6429C14.9397 24.6429 15 24.4621 15 24.2411C15 24.0201 15.0603 23.8393 15.1339 23.8393C15.2076 23.8393 15.2679 23.7188 15.2679 23.5714C15.2679 23.4241 15.3281 23.3036 15.4018 23.3036C15.4754 23.3036 15.5357 23.183 15.5357 23.0357C15.5357 22.8884 15.596 22.7679 15.6696 22.7679C15.7433 22.7679 15.8036 22.6473 15.8036 22.5C15.8036 22.3527 15.8638 22.2321 15.9375 22.2321C16.0112 22.2321 16.0714 22.1116 16.0714 21.9643C16.0714 21.817 16.1317 21.6964 16.2054 21.6964C16.279 21.6964 16.3393 21.5759 16.3393 21.4286C16.3393 21.2812 16.3996 21.1607 16.4732 21.1607C16.5469 21.1607 16.6071 21.0402 16.6071 20.8929C16.6071 20.7455 16.6674 20.625 16.7411 20.625C16.8147 20.625 16.875 20.5045 16.875 20.3571C16.875 20.2098 16.9353 20.0893 17.0089 20.0893C17.0826 20.0893 17.1429 19.9688 17.1429 19.8214C17.1429 19.6741 17.2031 19.5536 17.2768 19.5536C17.3504 19.5536 17.4107 19.433 17.4107 19.2857C17.4107 19.1384 17.471 19.0179 17.5446 19.0179C17.6183 19.0179 17.6786 18.8973 17.6786 18.75C17.6786 18.6027 17.7388 18.4821 17.8125 18.4821C17.8862 18.4821 17.9464 18.3616 17.9464 18.2143C17.9464 18.067 18.0067 17.9464 18.0804 17.9464C18.154 17.9464 18.2143 17.8259 18.2143 17.6786C18.2143 17.5312 18.2746 17.4107 18.3482 17.4107C18.4219 17.4107 18.4821 17.2902 18.4821 17.1429C18.4821 16.9955 18.5424 16.875 18.6161 16.875C18.6897 16.875 18.75 16.6942 18.75 16.4732C18.75 16.2522 18.8103 16.0714 18.8839 16.0714C18.9576 16.0714 19.0179 15.9509 19.0179 15.8036C19.0179 15.6562 19.0781 15.5357 19.1518 15.5357C19.2254 15.5357 19.2857 15.4152 19.2857 15.2679C19.2857 15.1205 19.346 15 19.4196 15C19.4933 15 19.5536 14.8795 19.5536 14.7321C19.5536 14.5848 19.6138 14.4643 19.6875 14.4643C19.7612 14.4643 19.8214 14.3438 19.8214 14.1964C19.8214 14.0491 19.8817 13.9286 19.9554 13.9286C20.029 13.9286 20.0893 13.808 20.0893 13.6607C20.0893 13.5134 20.1496 13.3929 20.2232 13.3929C20.2969 13.3929 20.3571 13.2723 20.3571 13.125C20.3571 12.9777 20.4174 12.8571 20.4911 12.8571C20.5647 12.8571 20.625 12.7366 20.625 12.5893C20.625 12.442 20.6853 12.3214 20.7589 12.3214C20.8326 12.3214 20.8929 12.2009 20.8929 12.0536C20.8929 11.9062 20.9531 11.7857 21.0268 11.7857C21.1004 11.7857 21.1607 11.6652 21.1607 11.5179C21.1607 11.3705 21.221 11.25 21.2946 11.25C21.3683 11.25 21.4286 11.1295 21.4286 10.9821C21.4286 10.8348 21.4888 10.7143 21.5625 10.7143C21.6362 10.7143 21.6964 10.5938 21.6964 10.4464C21.6964 10.2991 21.7567 10.1786 21.8304 10.1786C21.904 10.1786 21.9643 10.1183 21.9643 10.0446C21.9643 9.95813 20.4017 9.91071 17.5446 9.91071C14.6875 9.91071 13.125 9.95813 13.125 10.0446C13.125 10.1183 13.2455 10.1786 13.3929 10.1786C13.5402 10.1786 13.6607 10.2388 13.6607 10.3125C13.6607 10.3862 13.7813 10.4464 13.9286 10.4464C14.0759 10.4464 14.1964 10.5067 14.1964 10.5804C14.1964 10.654 14.317 10.7143 14.4643 10.7143C14.6116 10.7143 14.7321 10.7746 14.7321 10.8482C14.7321 10.9219 14.8527 10.9821 15 10.9821C15.1473 10.9821 15.2679 11.0424 15.2679 11.1161C15.2679 11.1897 15.3884 11.25 15.5357 11.25C15.683 11.25 15.8036 11.3103 15.8036 11.3839C15.8036 11.4576 15.9241 11.5179 16.0714 11.5179C16.2188 11.5179 16.3393 11.5781 16.3393 11.6518C16.3393 11.7254 16.4466 11.7857 16.5775 11.7857C16.7087 11.7857 16.9027 11.9062 17.0089 12.0536C17.1151 12.2009 17.3092 12.3214 17.4403 12.3214C17.5713 12.3214 17.6786 12.3817 17.6786 12.4554C17.6786 12.529 17.7991 12.5893 17.9464 12.5893C18.0938 12.5893 18.2143 12.6496 18.2143 12.7232C18.2143 12.7969 18.3348 12.8571 18.4821 12.8571C18.7054 12.8571 18.75 12.9465 18.75 13.3929C18.75 13.6875 18.6897 13.9286 18.6161 13.9286C18.5424 13.9286 18.4821 14.0491 18.4821 14.1964C18.4821 14.3438 18.4219 14.4643 18.3482 14.4643C18.2746 14.4643 18.2143 14.5848 18.2143 14.7321C18.2143 14.8795 18.154 15 18.0804 15C18.0067 15 17.9464 15.1205 17.9464 15.2679C17.9464 15.4152 17.8862 15.5357 17.8125 15.5357C17.7388 15.5357 17.6786 15.6562 17.6786 15.8036C17.6786 15.9509 17.6183 16.0714 17.5446 16.0714C17.471 16.0714 17.4107 16.192 17.4107 16.3393C17.4107 16.4866 17.3504 16.6071 17.2768 16.6071C17.2031 16.6071 17.1429 16.7879 17.1429 17.0089C17.1429 17.2299 17.0826 17.4107 17.0089 17.4107C16.9353 17.4107 16.875 17.5312 16.875 17.6786C16.875 17.8259 16.8147 17.9464 16.7411 17.9464C16.6674 17.9464 16.6071 18.067 16.6071 18.2143C16.6071 18.3616 16.5469 18.4821 16.4732 18.4821C16.3996 18.4821 16.3393 18.6027 16.3393 18.75C16.3393 18.8973 16.279 19.0179 16.2054 19.0179C16.1317 19.0179 16.0714 19.1384 16.0714 19.2857C16.0714 19.433 16.0112 19.5536 15.9375 19.5536C15.8638 19.5536 15.8036 19.6741 15.8036 19.8214C15.8036 19.9688 15.7433 20.0893 15.6696 20.0893C15.596 20.0893 15.5357 20.2098 15.5357 20.3571C15.5357 20.5045 15.4754 20.625 15.4018 20.625C15.3281 20.625 15.2679 20.8058 15.2679 21.0268C15.2679 21.2478 15.2076 21.4286 15.1339 21.4286C15.0603 21.4286 15 21.5491 15 21.6964C15 21.8438 14.9397 21.9643 14.8661 21.9643C14.7924 21.9643 14.7321 22.0848 14.7321 22.2321C14.7321 22.3795 14.6719 22.5 14.5982 22.5C14.5246 22.5 14.4643 22.6205 14.4643 22.7679C14.4643 22.9152 14.404 23.0357 14.3304 23.0357C14.2567 23.0357 14.1964 23.1562 14.1964 23.3036C14.1964 23.4509 14.1362 23.5714 14.0625 23.5714C13.9888 23.5714 13.9286 23.692 13.9286 23.8393C13.9286 23.9866 13.8683 24.1071 13.7946 24.1071C13.721 24.1071 13.6607 24.2277 13.6607 24.375C13.6607 24.5535 13.5714 24.6429 13.3929 24.6429C13.1845 24.6429 13.125 24.5535 13.125 24.2411C13.125 24.0201 13.0647 23.8393 12.9911 23.8393C12.9174 23.8393 12.8571 23.7188 12.8571 23.5714C12.8571 23.4241 12.7969 23.3036 12.7232 23.3036C12.6496 23.3036 12.5893 23.183 12.5893 23.0357C12.5893 22.8884 12.529 22.7679 12.4554 22.7679C12.3817 22.7679 12.3214 22.6473 12.3214 22.5C12.3214 22.3527 12.2612 22.2321 12.1875 22.2321C12.1138 22.2321 12.0536 22.1116 12.0536 21.9643C12.0536 21.817 11.9933 21.6964 11.9196 21.6964C11.846 21.6964 11.7857 21.5156 11.7857 21.2946C11.7857 21.0737 11.7254 20.8929 11.6518 20.8929C11.5781 20.8929 11.5179 20.7723 11.5179 20.625C11.5179 20.4777 11.4576 20.3571 11.3839 20.3571C11.3103 20.3571 11.25 20.2366 11.25 20.0893C11.25 19.942 11.1897 19.8214 11.1161 19.8214C11.0424 19.8214 10.9821 19.7009 10.9821 19.5536C10.9821 19.4062 10.9219 19.2857 10.8482 19.2857C10.7746 19.2857 10.7143 19.1652 10.7143 19.0179C10.7143 18.8705 10.654 18.75 10.5804 18.75C10.5067 18.75 10.4464 18.5692 10.4464 18.3482C10.4464 18.1272 10.3862 17.9464 10.3125 17.9464C10.2388 17.9464 10.1786 17.8259 10.1786 17.6786C10.1786 17.5312 10.1183 17.4107 10.0446 17.4107C9.97098 17.4107 9.91072 17.2902 9.91072 17.1429C9.91072 16.9955 9.85045 16.875 9.77679 16.875C9.70313 16.875 9.64286 16.7545 9.64286 16.6071C9.64286 16.4598 9.58259 16.3393 9.50893 16.3393C9.43527 16.3393 9.375 16.2188 9.375 16.0714C9.375 15.9241 9.31473 15.8036 9.24107 15.8036C9.16741 15.8036 9.10714 15.6228 9.10714 15.4018C9.10714 15.1808 9.04688 15 8.97322 15C8.89955 15 8.83929 14.8795 8.83929 14.7321C8.83929 14.5848 8.77902 14.4643 8.70536 14.4643C8.6317 14.4643 8.57143 14.3438 8.57143 14.1964C8.57143 14.0491 8.51116 13.9286 8.4375 13.9286C8.36384 13.9286 8.30357 13.808 8.30357 13.6607C8.30357 13.5134 8.2433 13.3929 8.16964 13.3929C8.09598 13.3929 8.03572 13.2723 8.03572 13.125C8.03572 12.9777 7.97545 12.8571 7.90179 12.8571C7.82813 12.8571 7.76786 12.6763 7.76786 12.4554C7.76786 12.2344 7.70759 12.0536 7.63393 12.0536C7.56027 12.0536 7.5 11.933 7.5 11.7857C7.5 11.6384 7.43973 11.5179 7.36607 11.5179C7.29241 11.5179 7.23214 11.3973 7.23214 11.25C7.23214 11.1027 7.17188 10.9821 7.09821 10.9821C7.02455 10.9821 6.96429 10.8616 6.96429 10.7143C6.96429 10.567 6.90402 10.4464 6.83036 10.4464C6.7567 10.4464 6.69643 10.3259 6.69643 10.1786C6.69643 10.0312 6.63616 9.91071 6.5625 9.91071C6.48884 9.91071 6.42857 9.79018 6.42857 9.64286C6.42857 9.49554 6.3683 9.375 6.29464 9.375C6.22098 9.375 6.16071 9.43527 6.16071 9.50893ZM34.5536 9.50893C34.5536 9.58339 34.1964 9.64286 33.75 9.64286C33.3036 9.64286 32.9464 9.70232 32.9464 9.77679C32.9464 9.85045 32.7656 9.91071 32.5446 9.91071C32.3237 9.91071 32.1429 9.97098 32.1429 10.0446C32.1429 10.1183 32.0223 10.1786 31.875 10.1786C31.7277 10.1786 31.6071 10.2388 31.6071 10.3125C31.6071 10.3862 31.4866 10.4464 31.3393 10.4464C31.192 10.4464 31.0714 10.5067 31.0714 10.5804C31.0714 10.654 30.9509 10.7143 30.8036 10.7143C30.6563 10.7143 30.5357 10.7746 30.5357 10.8482C30.5357 10.9219 30.4445 10.9821 30.3329 10.9821C30.0864 10.9821 27.8571 13.1847 27.8571 13.4283C27.8571 13.5236 27.7366 13.6884 27.5893 13.7946C27.442 13.9008 27.3214 14.0949 27.3214 14.226C27.3214 14.357 27.2612 14.4643 27.1875 14.4643C27.1138 14.4643 27.0536 14.5848 27.0536 14.7321C27.0536 14.8795 26.9933 15 26.9196 15C26.846 15 26.7857 15.1205 26.7857 15.2679C26.7857 15.4152 26.7254 15.5357 26.6518 15.5357C26.5781 15.5357 26.5179 15.7165 26.5179 15.9375C26.5179 16.1585 26.4576 16.3393 26.3839 16.3393C26.3103 16.3393 26.25 16.5201 26.25 16.7411C26.25 16.9621 26.1897 17.1429 26.1161 17.1429C26.0416 17.1429 25.9821 17.5 25.9821 17.9464C25.9821 18.3928 25.9227 18.75 25.8482 18.75C25.7671 18.75 25.7143 19.3303 25.7143 20.2232C25.7143 21.1161 25.7671 21.6964 25.8482 21.6964C25.9219 21.6964 25.9821 21.9978 25.9821 22.3661C25.9821 22.7344 26.0424 23.0357 26.1161 23.0357C26.1897 23.0357 26.25 23.2165 26.25 23.4375C26.25 23.6585 26.3103 23.8393 26.3839 23.8393C26.4576 23.8393 26.5179 24.0201 26.5179 24.2411C26.5179 24.4621 26.5781 24.6429 26.6518 24.6429C26.7254 24.6429 26.7857 24.7634 26.7857 24.9107C26.7857 25.058 26.846 25.1786 26.9196 25.1786C26.9933 25.1786 27.0536 25.2858 27.0536 25.4168C27.0536 25.5479 27.1741 25.742 27.3214 25.8482C27.4688 25.9544 27.5893 26.1193 27.5893 26.2148C27.5893 26.441 29.5412 28.3929 29.7674 28.3929C29.8629 28.3929 30.0277 28.5134 30.1339 28.6607C30.2401 28.808 30.4342 28.9286 30.5653 28.9286C30.6963 28.9286 30.8036 28.9888 30.8036 29.0625C30.8036 29.1362 30.9241 29.1964 31.0714 29.1964C31.2188 29.1964 31.3393 29.2567 31.3393 29.3304C31.3393 29.404 31.4598 29.4643 31.6071 29.4643C31.7545 29.4643 31.875 29.5246 31.875 29.5982C31.875 29.6719 32.1161 29.7321 32.4107 29.7321C32.7054 29.7321 32.9464 29.7924 32.9464 29.8661C32.9464 29.9498 33.75 30 35.0893 30C36.4286 30 37.2321 29.9498 37.2321 29.8661C37.2321 29.7924 37.4129 29.7321 37.6339 29.7321C37.8549 29.7321 38.0357 29.6719 38.0357 29.5982C38.0357 29.5246 38.1563 29.4643 38.3036 29.4643C38.4509 29.4643 38.5714 29.404 38.5714 29.3304C38.5714 29.2567 38.692 29.1964 38.8393 29.1964C38.9866 29.1964 39.1071 29.1362 39.1071 29.0625C39.1071 28.9888 39.2144 28.9286 39.3454 28.9286C39.4765 28.9286 39.6706 28.808 39.7768 28.6607C39.883 28.5134 40.0485 28.3929 40.1447 28.3929C40.3722 28.3929 41.5179 27.2472 41.5179 27.0197C41.5179 26.9235 41.6384 26.758 41.7857 26.6518C41.933 26.5456 42.0536 26.3648 42.0536 26.25C42.0536 26.1352 42.1741 25.9544 42.3214 25.8482C42.4688 25.742 42.5893 25.5479 42.5893 25.4168C42.5893 25.2858 42.6496 25.1786 42.7232 25.1786C42.7969 25.1786 42.8571 24.9978 42.8571 24.7768C42.8571 24.5558 42.9174 24.375 42.9911 24.375C43.0647 24.375 43.125 24.2545 43.125 24.1071C43.125 23.9598 43.1853 23.8393 43.2589 23.8393C43.3326 23.8393 43.3929 23.6585 43.3929 23.4375C43.3929 23.2165 43.3594 23.0357 43.3185 23.0357C43.2775 23.0357 42.8892 23.3973 42.4554 23.8393C42.0216 24.2812 41.5862 24.6429 41.4879 24.6429C41.3896 24.6429 41.2223 24.7634 41.1161 24.9107C41.0099 25.058 40.8291 25.1786 40.7143 25.1786C40.5995 25.1786 40.4187 25.2991 40.3125 25.4464C40.2063 25.5938 40.0122 25.7143 39.8811 25.7143C39.7501 25.7143 39.6429 25.7746 39.6429 25.8482C39.6429 25.9219 39.4621 25.9821 39.2411 25.9821C39.0201 25.9821 38.8393 26.0424 38.8393 26.1161C38.8393 26.1897 38.6585 26.25 38.4375 26.25C38.2165 26.25 38.0357 26.3103 38.0357 26.3839C38.0357 26.4668 37.3215 26.5179 36.1607 26.5179C35 26.5179 34.2857 26.4668 34.2857 26.3839C34.2857 26.3103 34.1049 26.25 33.8839 26.25C33.6629 26.25 33.4821 26.1897 33.4821 26.1161C33.4821 26.0424 33.3616 25.9821 33.2143 25.9821C33.067 25.9821 32.9464 25.9219 32.9464 25.8482C32.9464 25.7746 32.8259 25.7143 32.6786 25.7143C32.5313 25.7143 32.4107 25.654 32.4107 25.5804C32.4107 25.5067 32.319 25.4464 32.2069 25.4464C31.9587 25.4464 30.5357 24.0486 30.5357 23.8047C30.5357 23.709 30.4152 23.5437 30.2679 23.4375C30.1205 23.3313 30 23.1372 30 23.0061C30 22.8751 29.9397 22.7679 29.8661 22.7679C29.7924 22.7679 29.7321 22.5871 29.7321 22.3661C29.7321 22.1451 29.6719 21.9643 29.5982 21.9643C29.5246 21.9643 29.4643 21.7835 29.4643 21.5625C29.4643 21.3415 29.404 21.1607 29.3304 21.1607C29.2509 21.1607 29.1964 20.6696 29.1964 19.9554C29.1964 19.2411 29.1419 18.75 29.0625 18.75C28.8636 18.75 28.9004 18.3572 29.12 18.1378C29.2808 17.9768 30.4108 17.9464 36.2182 17.9464H43.125V16.875C43.125 16.25 43.0692 15.8036 42.9911 15.8036C42.9174 15.8036 42.8571 15.5625 42.8571 15.2679C42.8571 14.9732 42.7969 14.7321 42.7232 14.7321C42.6496 14.7321 42.5893 14.5513 42.5893 14.3304C42.5893 14.1094 42.529 13.9286 42.4554 13.9286C42.3817 13.9286 42.3214 13.808 42.3214 13.6607C42.3214 13.5134 42.2612 13.3929 42.1875 13.3929C42.1138 13.3929 42.0536 13.2856 42.0536 13.1546C42.0536 13.0235 41.933 12.8294 41.7857 12.7232C41.6384 12.617 41.5179 12.4517 41.5179 12.356C41.5179 12.1121 40.0949 10.7143 39.8467 10.7143C39.7346 10.7143 39.6429 10.654 39.6429 10.5804C39.6429 10.5067 39.5223 10.4464 39.375 10.4464C39.2277 10.4464 39.1071 10.3862 39.1071 10.3125C39.1071 10.2388 38.9866 10.1786 38.8393 10.1786C38.692 10.1786 38.5714 10.1183 38.5714 10.0446C38.5714 9.97098 38.4509 9.91071 38.3036 9.91071C38.1563 9.91071 38.0357 9.85045 38.0357 9.77679C38.0357 9.70232 37.6785 9.64286 37.2321 9.64286C36.7858 9.64286 36.4286 9.58339 36.4286 9.50893C36.4286 9.43246 36.0268 9.375 35.4911 9.375C34.9554 9.375 34.5536 9.43246 34.5536 9.50893ZM72.0536 9.50893C72.0536 9.58259 71.7522 9.64286 71.3839 9.64286C71.0156 9.64286 70.7143 9.70312 70.7143 9.77679C70.7143 9.85045 70.5335 9.91071 70.3125 9.91071C70.0915 9.91071 69.9107 9.97098 69.9107 10.0446C69.9107 10.1183 69.7299 10.1786 69.5089 10.1786C69.2879 10.1786 69.1071 10.2388 69.1071 10.3125C69.1071 10.3862 68.9999 10.4464 68.8689 10.4464C68.7378 10.4464 68.5437 10.567 68.4375 10.7143C68.3313 10.8616 68.1505 10.9821 68.0357 10.9821C67.9209 10.9821 67.7401 11.1027 67.6339 11.25C67.5277 11.3973 67.3625 11.5179 67.2667 11.5179C67.0397 11.5179 65.625 12.9325 65.625 13.1596C65.625 13.2553 65.5045 13.4206 65.3571 13.5268C65.2098 13.633 65.0893 13.8138 65.0893 13.9286C65.0893 14.0433 64.9688 14.2242 64.8214 14.3304C64.6741 14.4366 64.5536 14.6306 64.5536 14.7617C64.5536 14.8927 64.4933 15 64.4196 15C64.346 15 64.2857 15.1808 64.2857 15.4018C64.2857 15.6228 64.2254 15.8036 64.1518 15.8036C64.0781 15.8036 64.0179 15.9844 64.0179 16.2054C64.0179 16.4263 63.9576 16.6071 63.8839 16.6071C63.8103 16.6071 63.75 16.9085 63.75 17.2768C63.75 17.6451 63.6897 17.9464 63.6161 17.9464C63.5332 17.9464 63.4821 18.6607 63.4821 19.8214C63.4821 20.9822 63.5332 21.6964 63.6161 21.6964C63.6897 21.6964 63.75 21.9978 63.75 22.3661C63.75 22.7344 63.8103 23.0357 63.8839 23.0357C63.9576 23.0357 64.0179 23.2165 64.0179 23.4375C64.0179 23.6585 64.0781 23.8393 64.1518 23.8393C64.2254 23.8393 64.2857 23.9598 64.2857 24.1071C64.2857 24.2545 64.346 24.375 64.4196 24.375C64.4933 24.375 64.5536 24.4955 64.5536 24.6429C64.5536 24.7902 64.6138 24.9107 64.6875 24.9107C64.7612 24.9107 64.8214 25.0312 64.8214 25.1786C64.8214 25.3259 64.8817 25.4464 64.9554 25.4464C65.029 25.4464 65.0893 25.5427 65.0893 25.6606C65.0893 25.7783 65.2701 26.0436 65.4911 26.25C65.7121 26.4564 65.8929 26.6936 65.8929 26.777C65.8929 26.9741 66.7759 27.8571 66.973 27.8571C67.0564 27.8571 67.2936 28.0379 67.5 28.2589C67.7064 28.4799 67.9717 28.6607 68.0894 28.6607C68.2073 28.6607 68.3036 28.721 68.3036 28.7946C68.3036 28.8683 68.4241 28.9286 68.5714 28.9286C68.7188 28.9286 68.8393 28.9888 68.8393 29.0625C68.8393 29.1362 68.9598 29.1964 69.1071 29.1964C69.2545 29.1964 69.375 29.2567 69.375 29.3304C69.375 29.404 69.5558 29.4643 69.7768 29.4643C69.9978 29.4643 70.1786 29.5246 70.1786 29.5982C70.1786 29.6719 70.4196 29.7321 70.7143 29.7321C71.0089 29.7321 71.25 29.7924 71.25 29.8661C71.25 29.95 72.0982 30 73.5268 30C74.9554 30 75.8036 29.95 75.8036 29.8661C75.8036 29.7924 76.0446 29.7321 76.3393 29.7321C76.6339 29.7321 76.875 29.6719 76.875 29.5982C76.875 29.5246 77.0558 29.4643 77.2768 29.4643C77.4978 29.4643 77.6786 29.404 77.6786 29.3304C77.6786 29.2567 77.7991 29.1964 77.9464 29.1964C78.0938 29.1964 78.2143 29.1362 78.2143 29.0625C78.2143 28.9888 78.3216 28.9286 78.4526 28.9286C78.5837 28.9286 78.7777 28.808 78.8839 28.6607C78.9901 28.5134 79.1601 28.3929 79.2616 28.3929C79.363 28.3929 79.6151 28.2121 79.8214 27.9911C80.0278 27.7701 80.2673 27.5893 80.3535 27.5893C80.5546 27.5893 80.8929 27.2527 80.8929 27.0526C80.8929 26.968 81.1339 26.6671 81.4286 26.3839C81.7232 26.1008 81.9643 25.7742 81.9643 25.6578C81.9643 25.5415 82.0246 25.4464 82.0982 25.4464C82.1719 25.4464 82.2321 25.3259 82.2321 25.1786C82.2321 25.0312 82.2924 24.9107 82.3661 24.9107C82.4397 24.9107 82.5 24.7902 82.5 24.6429C82.5 24.4955 82.5603 24.375 82.6339 24.375C82.7076 24.375 82.7679 24.2545 82.7679 24.1071C82.7679 23.9598 82.8281 23.8393 82.9018 23.8393C82.9755 23.8393 83.0357 23.6585 83.0357 23.4375C83.0357 23.2165 83.096 23.0357 83.1696 23.0357C83.2433 23.0357 83.3036 22.7344 83.3036 22.3661C83.3036 21.9978 83.3638 21.6964 83.4375 21.6964C83.5208 21.6964 83.5714 20.9375 83.5714 19.6875C83.5714 18.4375 83.5208 17.6786 83.4375 17.6786C83.3638 17.6786 83.3036 17.3772 83.3036 17.0089C83.3036 16.6406 83.2433 16.3393 83.1696 16.3393C83.096 16.3393 83.0357 16.1585 83.0357 15.9375C83.0357 15.7165 82.9755 15.5357 82.9018 15.5357C82.8281 15.5357 82.7679 15.4152 82.7679 15.2679C82.7679 15.1205 82.7076 15 82.6339 15C82.5603 15 82.5 14.8795 82.5 14.7321C82.5 14.5848 82.4397 14.4643 82.3661 14.4643C82.2924 14.4643 82.2321 14.357 82.2321 14.226C82.2321 14.0949 82.1116 13.9008 81.9643 13.7946C81.817 13.6884 81.6964 13.5236 81.6964 13.4283C81.6964 13.1847 79.4672 10.9821 79.2206 10.9821C79.1091 10.9821 79.0179 10.9219 79.0179 10.8482C79.0179 10.7746 78.8973 10.7143 78.75 10.7143C78.6027 10.7143 78.4821 10.654 78.4821 10.5804C78.4821 10.5067 78.3616 10.4464 78.2143 10.4464C78.067 10.4464 77.9464 10.3862 77.9464 10.3125C77.9464 10.2388 77.8259 10.1786 77.6786 10.1786C77.5313 10.1786 77.4107 10.1183 77.4107 10.0446C77.4107 9.97098 77.2299 9.91071 77.0089 9.91071C76.788 9.91071 76.6071 9.85045 76.6071 9.77679C76.6071 9.70312 76.3058 9.64286 75.9375 9.64286C75.5692 9.64286 75.2679 9.58259 75.2679 9.50893C75.2679 9.4271 74.6428 9.375 73.6607 9.375C72.6786 9.375 72.0536 9.4271 72.0536 9.50893ZM121.071 9.50893C121.071 9.58259 120.891 9.64286 120.67 9.64286C120.449 9.64286 120.268 9.70312 120.268 9.77679C120.268 9.85045 120.087 9.91071 119.866 9.91071C119.645 9.91071 119.464 9.97098 119.464 10.0446C119.464 10.1183 119.283 10.1786 119.063 10.1786C118.842 10.1786 118.661 10.2388 118.661 10.3125C118.661 10.3862 118.48 10.4464 118.259 10.4464C118.038 10.4464 117.857 10.5067 117.857 10.5804C117.857 10.654 117.676 10.7143 117.455 10.7143C117.234 10.7143 117.054 10.7746 117.054 10.8482C117.054 10.9219 116.873 10.9821 116.652 10.9821C116.431 10.9821 116.25 11.0424 116.25 11.1161C116.25 11.1897 116.069 11.25 115.848 11.25C115.627 11.25 115.446 11.3103 115.446 11.3839C115.446 11.4576 115.266 11.5179 115.045 11.5179C114.824 11.5179 114.643 11.5781 114.643 11.6518C114.643 11.7254 114.522 11.7857 114.375 11.7857C114.228 11.7857 114.107 11.846 114.107 11.9196C114.107 11.9933 114.214 12.0536 114.345 12.0536C114.477 12.0536 114.671 12.1741 114.777 12.3214C114.883 12.4688 115.077 12.5893 115.208 12.5893C115.339 12.5893 115.446 12.6496 115.446 12.7232C115.446 12.7969 115.567 12.8571 115.714 12.8571C115.862 12.8571 115.982 12.9174 115.982 12.9911C115.982 13.0647 116.103 13.125 116.25 13.125C116.397 13.125 116.518 13.1853 116.518 13.2589C116.518 13.3326 116.625 13.3929 116.756 13.3929C116.887 13.3929 117.081 13.5134 117.188 13.6607C117.294 13.808 117.462 13.9286 117.561 13.9286C118.116 13.9286 118.125 14.0293 118.125 20.4844V26.6575L117.391 27.3913C116.988 27.7949 116.59 28.125 116.508 28.125C116.425 28.125 116.189 28.3058 115.982 28.5268C115.776 28.7478 115.538 28.9286 115.454 28.9286C115.3 28.9286 114.643 29.5211 114.643 29.6591C114.643 29.6993 116.933 29.7321 119.732 29.7321C122.531 29.7321 124.821 29.7 124.821 29.6608C124.821 29.5236 123.892 28.6607 123.744 28.6607C123.662 28.6607 123.363 28.4196 123.08 28.125C122.797 27.8304 122.498 27.5893 122.415 27.5893C122.332 27.5893 122.117 27.4413 121.936 27.2605L121.607 26.9318V18.1533C121.607 9.46433 121.604 9.375 121.339 9.375C121.192 9.375 121.071 9.43527 121.071 9.50893ZM139.286 9.50893C139.286 9.5854 138.884 9.64286 138.348 9.64286C137.813 9.64286 137.411 9.70031 137.411 9.77679C137.411 9.85045 137.23 9.91071 137.009 9.91071C136.788 9.91071 136.607 9.97098 136.607 10.0446C136.607 10.1183 136.487 10.1786 136.339 10.1786C136.192 10.1786 136.071 10.2388 136.071 10.3125C136.071 10.3862 135.951 10.4464 135.804 10.4464C135.656 10.4464 135.536 10.5067 135.536 10.5804C135.536 10.654 135.415 10.7143 135.268 10.7143C135.121 10.7143 135 10.7746 135 10.8482C135 10.9219 134.909 10.9821 134.797 10.9821C134.551 10.9821 132.321 13.1847 132.321 13.4283C132.321 13.5236 132.201 13.6884 132.054 13.7946C131.906 13.9008 131.786 14.0949 131.786 14.226C131.786 14.357 131.725 14.4643 131.652 14.4643C131.578 14.4643 131.518 14.5848 131.518 14.7321C131.518 14.8795 131.458 15 131.384 15C131.31 15 131.25 15.1205 131.25 15.2679C131.25 15.4152 131.19 15.5357 131.116 15.5357C131.042 15.5357 130.982 15.7165 130.982 15.9375C130.982 16.1585 130.922 16.3393 130.848 16.3393C130.775 16.3393 130.714 16.5201 130.714 16.7411C130.714 16.9621 130.654 17.1429 130.58 17.1429C130.506 17.1429 130.446 17.5 130.446 17.9464C130.446 18.3928 130.387 18.75 130.313 18.75C130.232 18.75 130.179 19.2857 130.179 20.0893C130.179 20.8929 130.232 21.4286 130.313 21.4286C130.387 21.4286 130.446 21.7858 130.446 22.2321C130.446 22.6785 130.506 23.0357 130.58 23.0357C130.654 23.0357 130.714 23.2165 130.714 23.4375C130.714 23.6585 130.775 23.8393 130.848 23.8393C130.922 23.8393 130.982 24.0201 130.982 24.2411C130.982 24.4621 131.042 24.6429 131.116 24.6429C131.19 24.6429 131.25 24.7634 131.25 24.9107C131.25 25.058 131.31 25.1786 131.384 25.1786C131.458 25.1786 131.518 25.2858 131.518 25.4168C131.518 25.5479 131.638 25.742 131.786 25.8482C131.933 25.9544 132.054 26.1193 132.054 26.2148C132.054 26.441 134.005 28.3929 134.232 28.3929C134.327 28.3929 134.492 28.5134 134.598 28.6607C134.704 28.808 134.898 28.9286 135.03 28.9286C135.161 28.9286 135.268 28.9888 135.268 29.0625C135.268 29.1362 135.388 29.1964 135.536 29.1964C135.683 29.1964 135.804 29.2567 135.804 29.3304C135.804 29.404 135.924 29.4643 136.071 29.4643C136.219 29.4643 136.339 29.5246 136.339 29.5982C136.339 29.6719 136.58 29.7321 136.875 29.7321C137.17 29.7321 137.411 29.7924 137.411 29.8661C137.411 29.9498 138.214 30 139.554 30C140.893 30 141.696 29.9498 141.696 29.8661C141.696 29.7924 141.877 29.7321 142.098 29.7321C142.319 29.7321 142.5 29.6719 142.5 29.5982C142.5 29.5246 142.621 29.4643 142.768 29.4643C142.915 29.4643 143.036 29.404 143.036 29.3304C143.036 29.2567 143.156 29.1964 143.304 29.1964C143.451 29.1964 143.571 29.1362 143.571 29.0625C143.571 28.9888 143.679 28.9286 143.81 28.9286C143.941 28.9286 144.135 28.808 144.241 28.6607C144.347 28.5134 144.513 28.3929 144.609 28.3929C144.837 28.3929 145.982 27.2472 145.982 27.0197C145.982 26.9235 146.103 26.758 146.25 26.6518C146.397 26.5456 146.518 26.3648 146.518 26.25C146.518 26.1352 146.638 25.9544 146.786 25.8482C146.933 25.742 147.054 25.5479 147.054 25.4168C147.054 25.2858 147.114 25.1786 147.188 25.1786C147.261 25.1786 147.321 25.058 147.321 24.9107C147.321 24.7634 147.382 24.6429 147.455 24.6429C147.529 24.6429 147.589 24.4621 147.589 24.2411C147.589 24.0201 147.65 23.8393 147.723 23.8393C147.797 23.8393 147.857 23.6585 147.857 23.4375C147.857 23.2165 147.824 23.0357 147.784 23.0357C147.743 23.0357 147.294 23.4576 146.786 23.9732C146.277 24.4888 145.781 24.9107 145.683 24.9107C145.586 24.9107 145.419 25.0312 145.313 25.1786C145.206 25.3259 145.012 25.4464 144.881 25.4464C144.75 25.4464 144.643 25.5067 144.643 25.5804C144.643 25.654 144.522 25.7143 144.375 25.7143C144.228 25.7143 144.107 25.7746 144.107 25.8482C144.107 25.9219 143.926 25.9821 143.705 25.9821C143.484 25.9821 143.304 26.0424 143.304 26.1161C143.304 26.1897 143.123 26.25 142.902 26.25C142.681 26.25 142.5 26.3103 142.5 26.3839C142.5 26.4663 141.83 26.5179 140.759 26.5179C139.688 26.5179 139.018 26.4663 139.018 26.3839C139.018 26.3103 138.837 26.25 138.616 26.25C138.395 26.25 138.214 26.1897 138.214 26.1161C138.214 26.0424 138.047 25.9821 137.842 25.9821C137.624 25.9821 137.39 25.8715 137.277 25.7143C137.171 25.567 137.006 25.4464 136.91 25.4464C136.667 25.4464 134.732 23.4857 134.732 23.2387C134.732 23.1271 134.672 23.0357 134.598 23.0357C134.525 23.0357 134.464 22.9152 134.464 22.7679C134.464 22.6205 134.404 22.5 134.33 22.5C134.257 22.5 134.196 22.3795 134.196 22.2321C134.196 22.0848 134.136 21.9643 134.063 21.9643C133.989 21.9643 133.929 21.7232 133.929 21.4286C133.929 21.1339 133.868 20.8929 133.795 20.8929C133.711 20.8929 133.661 20.0893 133.661 18.75C133.661 17.4107 133.711 16.6071 133.795 16.6071C133.868 16.6071 133.929 16.3661 133.929 16.0714C133.929 15.7768 133.989 15.5357 134.063 15.5357C134.136 15.5357 134.196 15.3549 134.196 15.1339C134.196 14.9129 134.257 14.7321 134.33 14.7321C134.404 14.7321 134.464 14.6116 134.464 14.4643C134.464 14.317 134.525 14.1964 134.598 14.1964C134.672 14.1964 134.732 14.0759 134.732 13.9286C134.732 13.7812 134.792 13.6607 134.866 13.6607C134.94 13.6607 135 13.5694 135 13.4577C135 13.193 136.943 11.25 137.208 11.25C137.319 11.25 137.411 11.1897 137.411 11.1161C137.411 11.0424 137.531 10.9821 137.679 10.9821C137.826 10.9821 137.946 10.9219 137.946 10.8482C137.946 10.7746 138.127 10.7143 138.348 10.7143C138.569 10.7143 138.75 10.654 138.75 10.5804C138.75 10.5067 139.022 10.4464 139.354 10.4464C139.946 10.4464 139.989 10.4776 141.497 11.9851C142.343 12.8316 143.036 13.586 143.036 13.6618C143.036 13.7376 143.429 14.1929 143.91 14.6736C144.68 15.4437 144.807 15.5242 144.981 15.3504C145.09 15.2419 145.179 15.0858 145.179 15.0039C145.179 14.9218 145.661 14.3776 146.25 13.7946C146.839 13.2117 147.321 12.6467 147.321 12.5392C147.321 12.4317 147.395 12.3192 147.485 12.2892C147.685 12.2226 147.017 11.5179 146.754 11.5179C146.657 11.5179 146.49 11.3973 146.384 11.25C146.278 11.1027 146.084 10.9821 145.953 10.9821C145.822 10.9821 145.714 10.9219 145.714 10.8482C145.714 10.7746 145.594 10.7143 145.446 10.7143C145.299 10.7143 145.179 10.654 145.179 10.5804C145.179 10.5067 145.058 10.4464 144.911 10.4464C144.763 10.4464 144.643 10.3862 144.643 10.3125C144.643 10.2388 144.462 10.1786 144.241 10.1786C144.02 10.1786 143.839 10.1183 143.839 10.0446C143.839 9.97098 143.598 9.91071 143.304 9.91071C143.009 9.91071 142.768 9.85045 142.768 9.77679C142.768 9.70232 142.411 9.64286 141.964 9.64286C141.518 9.64286 141.161 9.58339 141.161 9.50893C141.161 9.43246 140.759 9.375 140.223 9.375C139.688 9.375 139.286 9.43246 139.286 9.50893ZM161.25 9.50893C161.25 9.58259 161.069 9.64286 160.848 9.64286C160.627 9.64286 160.446 9.70312 160.446 9.77679C160.446 9.85045 160.205 9.91071 159.911 9.91071C159.616 9.91071 159.375 9.97098 159.375 10.0446C159.375 10.1183 159.194 10.1786 158.973 10.1786C158.752 10.1786 158.571 10.2388 158.571 10.3125C158.571 10.3862 158.391 10.4464 158.17 10.4464C157.949 10.4464 157.768 10.5067 157.768 10.5804C157.768 10.654 157.587 10.7143 157.366 10.7143C157.145 10.7143 156.964 10.7746 156.964 10.8482C156.964 10.9219 156.783 10.9821 156.563 10.9821C156.342 10.9821 156.161 11.0424 156.161 11.1161C156.161 11.1897 155.98 11.25 155.759 11.25C155.538 11.25 155.357 11.3103 155.357 11.3839C155.357 11.4576 155.176 11.5179 154.955 11.5179C154.734 11.5179 154.554 11.5781 154.554 11.6518C154.554 11.7254 154.433 11.7857 154.286 11.7857C154.138 11.7857 154.018 11.846 154.018 11.9196C154.018 11.9933 154.125 12.0536 154.256 12.0536C154.387 12.0536 154.581 12.1741 154.688 12.3214C154.794 12.4688 154.988 12.5893 155.119 12.5893C155.25 12.5893 155.357 12.6496 155.357 12.7232C155.357 12.7969 155.478 12.8571 155.625 12.8571C155.772 12.8571 155.893 12.9174 155.893 12.9911C155.893 13.0647 156.013 13.125 156.161 13.125C156.308 13.125 156.429 13.1853 156.429 13.2589C156.429 13.3326 156.549 13.3929 156.696 13.3929C156.844 13.3929 156.964 13.4531 156.964 13.5268C156.964 13.6004 157.057 13.6607 157.171 13.6607C157.285 13.6607 157.526 13.8087 157.707 13.9895L158.036 14.3182V20.552C158.036 24.6185 157.989 26.7857 157.902 26.7857C157.828 26.7857 157.768 26.9062 157.768 27.0536C157.768 27.2097 157.679 27.3214 157.554 27.3214C157.436 27.3214 157.171 27.5022 156.964 27.7232C156.758 27.9442 156.517 28.125 156.429 28.125C156.34 28.125 156.099 28.3058 155.893 28.5268C155.686 28.7478 155.449 28.9286 155.364 28.9286C155.211 28.9286 154.554 29.5211 154.554 29.6591C154.554 29.6993 156.844 29.7321 159.643 29.7321C162.442 29.7321 164.732 29.7004 164.732 29.6617C164.732 29.5228 163.531 28.3929 163.383 28.3929C163.3 28.3929 163.064 28.2121 162.857 27.9911C162.651 27.7701 162.413 27.5893 162.329 27.5893C162.244 27.5893 162.027 27.4413 161.847 27.2605L161.518 26.9318V18.1533C161.518 12.3904 161.472 9.375 161.384 9.375C161.31 9.375 161.25 9.43527 161.25 9.50893ZM35.625 10.5804C35.625 10.654 35.8058 10.7143 36.0268 10.7143C36.2478 10.7143 36.4286 10.7746 36.4286 10.8482C36.4286 10.9219 36.5491 10.9821 36.6964 10.9821C36.8438 10.9821 36.9643 11.0424 36.9643 11.1161C36.9643 11.1897 37.0567 11.25 37.1696 11.25C37.4363 11.25 38.3036 12.1173 38.3036 12.384C38.3036 12.4969 38.3638 12.5893 38.4375 12.5893C38.5112 12.5893 38.5714 12.7098 38.5714 12.8571C38.5714 13.0045 38.6317 13.125 38.7054 13.125C38.779 13.125 38.8393 13.3058 38.8393 13.5268C38.8393 13.7478 38.8996 13.9286 38.9732 13.9286C39.0477 13.9286 39.1071 14.2858 39.1071 14.7321C39.1071 15.1785 39.1666 15.5357 39.2411 15.5357C39.4465 15.5357 39.4001 16.4673 39.1836 16.6836C39.0248 16.8425 38.1607 16.875 34.0943 16.875C29.2858 16.875 29.1964 16.8702 29.1964 16.6071C29.1964 16.4598 29.2567 16.3393 29.3304 16.3393C29.404 16.3393 29.4643 16.0982 29.4643 15.8036C29.4643 15.5089 29.5246 15.2679 29.5982 15.2679C29.6719 15.2679 29.7321 15.0871 29.7321 14.8661C29.7321 14.6451 29.7924 14.4643 29.8661 14.4643C29.9397 14.4643 30 14.3438 30 14.1964C30 14.0491 30.0603 13.9286 30.1339 13.9286C30.2076 13.9286 30.2679 13.8213 30.2679 13.6903C30.2679 13.5592 30.3884 13.3651 30.5357 13.2589C30.683 13.1527 30.8036 12.9872 30.8036 12.891C30.8036 12.6635 31.9492 11.5179 32.1767 11.5179C32.2729 11.5179 32.4384 11.3973 32.5446 11.25C32.6581 11.0928 32.8914 10.9821 33.11 10.9821C33.3146 10.9821 33.4821 10.9219 33.4821 10.8482C33.4821 10.7746 33.6629 10.7143 33.8839 10.7143C34.1049 10.7143 34.2857 10.654 34.2857 10.5804C34.2857 10.5067 34.5871 10.4464 34.9554 10.4464C35.3237 10.4464 35.625 10.5067 35.625 10.5804ZM73.125 10.5804C73.125 10.6548 73.4822 10.7143 73.9286 10.7143C74.375 10.7143 74.7321 10.7737 74.7321 10.8482C74.7321 10.9219 74.8527 10.9821 75 10.9821C75.1473 10.9821 75.2679 11.0424 75.2679 11.1161C75.2679 11.1897 75.3751 11.25 75.5061 11.25C75.6372 11.25 75.8313 11.3705 75.9375 11.5179C76.0437 11.6652 76.2119 11.7857 76.3114 11.7857C76.5338 11.7857 76.875 12.1122 76.875 12.325C76.875 12.4113 77.0558 12.6508 77.2768 12.8571C77.4978 13.0635 77.6786 13.3288 77.6786 13.4466C77.6786 13.5644 77.7388 13.6607 77.8125 13.6607C77.8862 13.6607 77.9464 13.7812 77.9464 13.9286C77.9464 14.0759 78.0067 14.1964 78.0804 14.1964C78.154 14.1964 78.2143 14.317 78.2143 14.4643C78.2143 14.6116 78.2746 14.7321 78.3482 14.7321C78.4219 14.7321 78.4821 14.8527 78.4821 15C78.4821 15.1473 78.5424 15.2679 78.6161 15.2679C78.6897 15.2679 78.75 15.5089 78.75 15.8036C78.75 16.0982 78.8103 16.3393 78.8839 16.3393C78.9576 16.3393 79.0179 16.5804 79.0179 16.875C79.0179 17.1696 79.0781 17.4107 79.1518 17.4107C79.2299 17.4107 79.2857 17.8571 79.2857 18.4821C79.2857 19.1072 79.3416 19.5536 79.4196 19.5536C79.4961 19.5536 79.5536 19.9554 79.5536 20.4911C79.5536 21.0268 79.4961 21.4286 79.4196 21.4286C79.3402 21.4286 79.2857 21.9197 79.2857 22.6339C79.2857 23.3482 79.2312 23.8393 79.1518 23.8393C79.0781 23.8393 79.0179 24.0201 79.0179 24.2411C79.0179 24.4621 78.9576 24.6429 78.8839 24.6429C78.8103 24.6429 78.75 24.8237 78.75 25.0446C78.75 25.2656 78.6897 25.4464 78.6161 25.4464C78.5424 25.4464 78.4821 25.614 78.4821 25.8186C78.4821 26.0372 78.3715 26.2705 78.2143 26.3839C78.067 26.4901 77.9464 26.6554 77.9464 26.7512C77.9464 26.995 76.5234 28.3929 76.2753 28.3929C76.1632 28.3929 76.0714 28.4531 76.0714 28.5268C76.0714 28.6004 75.8906 28.6607 75.6696 28.6607C75.4487 28.6607 75.2679 28.721 75.2679 28.7946C75.2679 28.875 74.7321 28.9286 73.9286 28.9286C73.125 28.9286 72.5893 28.875 72.5893 28.7946C72.5893 28.721 72.4085 28.6607 72.1875 28.6607C71.9665 28.6607 71.7857 28.6004 71.7857 28.5268C71.7857 28.4531 71.6944 28.3929 71.5827 28.3929C71.3357 28.3929 69.375 26.4584 69.375 26.2148C69.375 26.1193 69.2545 25.9544 69.1071 25.8482C68.9499 25.7348 68.8393 25.5015 68.8393 25.2829C68.8393 25.0783 68.779 24.9107 68.7054 24.9107C68.6317 24.9107 68.5714 24.7902 68.5714 24.6429C68.5714 24.4955 68.5112 24.375 68.4375 24.375C68.3638 24.375 68.3036 24.1942 68.3036 23.9732C68.3036 23.7522 68.2433 23.5714 68.1696 23.5714C68.096 23.5714 68.0357 23.3304 68.0357 23.0357C68.0357 22.7411 67.9754 22.5 67.9018 22.5C67.8237 22.5 67.7679 22.0536 67.7679 21.4286C67.7679 20.8035 67.712 20.3571 67.6339 20.3571C67.5536 20.3571 67.5 19.8214 67.5 19.0179C67.5 18.2143 67.5536 17.6786 67.6339 17.6786C67.7104 17.6786 67.7679 17.2768 67.7679 16.7411C67.7679 16.2054 67.8253 15.8036 67.9018 15.8036C67.9754 15.8036 68.0357 15.5625 68.0357 15.2679C68.0357 14.9732 68.096 14.7321 68.1696 14.7321C68.2433 14.7321 68.3036 14.5513 68.3036 14.3304C68.3036 14.1094 68.3638 13.9286 68.4375 13.9286C68.5112 13.9286 68.5714 13.808 68.5714 13.6607C68.5714 13.5134 68.6317 13.3929 68.7054 13.3929C68.779 13.3929 68.8393 13.3014 68.8393 13.1894C68.8393 12.9246 70.5139 11.25 70.7787 11.25C70.8907 11.25 70.9821 11.1897 70.9821 11.1161C70.9821 11.0424 71.1027 10.9821 71.25 10.9821C71.3973 10.9821 71.5179 10.9219 71.5179 10.8482C71.5179 10.7746 71.8192 10.7143 72.1875 10.7143C72.5558 10.7143 72.8571 10.654 72.8571 10.5804C72.8571 10.5067 72.9174 10.4464 72.9911 10.4464C73.0647 10.4464 73.125 10.5067 73.125 10.5804ZM99.6429 12.7232C99.6429 12.7969 99.9442 12.8571 100.313 12.8571C100.681 12.8571 100.982 12.9174 100.982 12.9911C100.982 13.0647 101.163 13.125 101.384 13.125C101.605 13.125 101.786 13.1853 101.786 13.2589C101.786 13.3326 101.877 13.3929 101.989 13.3929C102.253 13.3929 104.196 15.3359 104.196 15.6005C104.196 15.7122 104.257 15.8036 104.33 15.8036C104.404 15.8036 104.464 15.9241 104.464 16.0714C104.464 16.2188 104.525 16.3393 104.598 16.3393C104.672 16.3393 104.732 16.5201 104.732 16.7411C104.732 16.9621 104.792 17.1429 104.866 17.1429C104.94 17.1429 105 17.3237 105 17.5446C105 17.7656 105.06 17.9464 105.134 17.9464C105.208 17.9464 105.268 18.1875 105.268 18.4821C105.268 18.7768 105.328 19.0179 105.402 19.0179C105.485 19.0179 105.536 19.7321 105.536 20.8929C105.536 22.0536 105.485 22.7679 105.402 22.7679C105.328 22.7679 105.268 23.0089 105.268 23.3036C105.268 23.5982 105.208 23.8393 105.134 23.8393C105.06 23.8393 105 24.0201 105 24.2411C105 24.4621 104.94 24.6429 104.866 24.6429C104.792 24.6429 104.732 24.8237 104.732 25.0446C104.732 25.2656 104.672 25.4464 104.598 25.4464C104.525 25.4464 104.464 25.5537 104.464 25.6847C104.464 25.8158 104.344 26.0099 104.196 26.1161C104.049 26.2223 103.929 26.3875 103.929 26.4833C103.929 26.7272 102.506 28.125 102.257 28.125C102.145 28.125 102.054 28.1853 102.054 28.2589C102.054 28.3326 101.933 28.3929 101.786 28.3929C101.638 28.3929 101.518 28.4531 101.518 28.5268C101.518 28.6004 101.337 28.6607 101.116 28.6607C100.895 28.6607 100.714 28.721 100.714 28.7946C100.714 28.8727 100.268 28.9286 99.6429 28.9286C99.0178 28.9286 98.5714 28.8727 98.5714 28.7946C98.5714 28.721 98.3906 28.6607 98.1696 28.6607C97.9487 28.6607 97.7679 28.6004 97.7679 28.5268C97.7679 28.4531 97.6764 28.3929 97.5644 28.3929C97.2997 28.3929 95.625 26.7182 95.625 26.4534C95.625 26.3415 95.5647 26.25 95.4911 26.25C95.4174 26.25 95.3571 26.0692 95.3571 25.8482C95.3571 25.6272 95.2969 25.4464 95.2232 25.4464C95.1496 25.4464 95.0893 25.2656 95.0893 25.0446C95.0893 24.8237 95.029 24.6429 94.9554 24.6429C94.8809 24.6429 94.8214 24.2857 94.8214 23.8393C94.8214 23.3929 94.762 23.0357 94.6875 23.0357C94.6013 23.0357 94.5536 21.6285 94.5536 19.0819V15.1282L95.2872 14.3944C95.6908 13.9908 96.1126 13.6607 96.2247 13.6607C96.3368 13.6607 96.4286 13.6004 96.4286 13.5268C96.4286 13.4531 96.5491 13.3929 96.6964 13.3929C96.8438 13.3929 96.9643 13.3326 96.9643 13.2589C96.9643 13.1853 97.0848 13.125 97.2321 13.125C97.3795 13.125 97.5 13.0647 97.5 12.9911C97.5 12.9166 97.8572 12.8571 98.3036 12.8571C98.75 12.8571 99.1071 12.7977 99.1071 12.7232C99.1071 12.6496 99.2277 12.5893 99.375 12.5893C99.5223 12.5893 99.6429 12.6496 99.6429 12.7232Z" clip-rule="evenodd" fill-rule="evenodd"></path>
</svg>
