<svg xmlns="http://www.w3.org/2000/svg" fill="none" viewBox="0 0 116 30" height="30" width="116">
<path fill="#1A1A1A" d="M67.568 0.0685769C63.961 0.571107 61.0464 2.05128 58.5688 4.63889C56.5221 6.77644 55.2418 9.25428 54.6494 12.2243C54.3594 13.6775 54.3836 16.5709 54.6978 18.0229C55.3323 20.9559 56.5484 23.2677 58.5583 25.3617C60.7904 27.6872 63.2789 29.0742 66.4235 29.7455C67.9784 30.0774 70.6912 30.0774 72.2461 29.7455C74.3289 29.3009 76.1536 28.5235 77.8724 27.3484C79.0681 26.531 79.4539 26.1001 79.4539 25.5822C79.4539 25.22 79.3231 25.0597 77.6651 23.3915C75.6093 21.3227 75.4957 21.2607 74.6828 21.7659C73.1561 22.7147 72.7915 22.9039 72.0118 23.1519C70.7569 23.5511 69.5632 23.6805 68.4271 23.5407C64.9384 23.1111 62.1925 20.8051 61.1262 17.4092C60.9099 16.7204 60.8754 16.3901 60.8754 15.0045C60.8754 13.6189 60.9099 13.2887 61.1262 12.5998C62.0816 9.55743 64.4079 7.35874 67.4351 6.63723C68.4716 6.3902 70.3909 6.4144 71.4287 6.68756C72.4114 6.94616 73.3688 7.38969 74.3676 8.04877C75.5009 8.79662 75.4917 8.80069 77.6603 6.6216C79.3064 4.96752 79.4539 4.78795 79.4539 4.43844C79.4539 3.94158 79.183 3.6092 78.1594 2.85021C76.5918 1.68785 74.4005 0.714916 72.3571 0.273958C71.2183 0.0282074 68.6483 -0.0819786 67.568 0.0685769ZM98.3002 0.0727532C91.862 0.879285 86.6693 5.77063 85.3779 12.245C85.1186 13.5451 85.1186 16.4639 85.3779 17.764C85.9931 20.8481 87.3556 23.401 89.5666 25.6119C91.7418 27.7871 94.1487 29.1017 97.1268 29.7414C98.7326 30.0862 101.508 30.0862 103.114 29.7414C106.092 29.1017 108.499 27.7871 110.674 25.6119C112.86 23.4267 114.131 21.0796 114.814 17.9688C115.141 16.4808 115.141 13.5282 114.814 12.0402C114.135 8.94621 112.857 6.58797 110.672 4.39625C108.482 2.20002 105.869 0.80101 102.885 0.227914C101.794 0.0182497 99.3856 -0.0632393 98.3002 0.0727532ZM0.498569 0.40224C0.0785979 0.646277 0 1.12536 0 3.4398C0 5.97215 0.070567 6.29072 0.688744 6.549C1.2371 6.77815 22.4108 6.78522 22.9582 6.55649C23.6458 6.2692 23.6648 6.18428 23.6648 3.40778V0.906912L23.3518 0.593916L23.0389 0.280918L11.8674 0.28413C4.12122 0.286379 0.635525 0.322572 0.498569 0.40224ZM29.1962 0.40224C28.7009 0.69018 28.6976 0.747576 28.6976 9.21177C28.6976 13.9217 28.7388 17.2939 28.7982 17.4501C28.8534 17.5956 29.0071 17.8155 29.1396 17.939C29.3801 18.1631 29.3946 18.1634 38.1479 18.1634C43.9564 18.1634 46.985 18.1261 47.1214 18.0531C47.5911 17.8018 47.6509 17.4546 47.6505 14.9831C47.6502 12.8449 47.6323 12.6195 47.438 12.3007C47.3212 12.1094 47.213 11.9417 47.1974 11.9282C47.1818 11.9147 44.4706 11.8786 41.1726 11.8479L35.176 11.7921L35.1473 9.24893L35.1186 6.70576H42.9409C51.3993 6.70576 51.2856 6.71315 51.6637 6.13609C51.8151 5.90501 51.8339 5.53355 51.8059 3.33358L51.7735 0.797476L51.4731 0.539197L51.1726 0.280918L40.2831 0.28413C32.7375 0.286379 29.3331 0.322679 29.1962 0.40224ZM102.155 6.66968C105.147 7.39365 107.577 9.81207 108.431 12.9164C108.726 13.9874 108.702 16.1337 108.382 17.2532C107.954 18.7538 107.274 19.8973 106.117 21.0612C105.22 21.9642 104.967 22.1504 103.975 22.6385C102.523 23.3534 101.684 23.5522 100.12 23.5522C98.6859 23.5522 97.801 23.3678 96.6233 22.8238C94.3001 21.7504 92.5678 19.7257 91.8571 17.2532C91.508 16.0389 91.5053 13.9788 91.8512 12.7773C93.1577 8.23948 97.6464 5.57874 102.155 6.66968ZM12.0112 10.099C11.8488 10.1639 0.445563 22.7998 0.170152 23.2202C0.0104944 23.4639 -0.00642453 23.8193 0.0217377 26.3329C0.0573956 29.5097 0.0568592 29.5078 0.845937 29.7269C1.39119 29.8784 22.294 29.8727 22.8405 29.7209C23.1141 29.645 23.316 29.4959 23.4558 29.2665C23.6453 28.9559 23.6641 28.7139 23.6644 26.5907C23.6647 24.6807 23.6343 24.1974 23.4972 23.9321C23.1679 23.2954 23.2662 23.3033 15.6819 23.3033C11.8763 23.3033 8.7788 23.2637 8.7985 23.2154C8.8181 23.167 10.5207 21.2615 12.582 18.9809C14.6469 16.6963 16.3961 14.6691 16.4775 14.4663C16.5947 14.174 16.5989 14.035 16.498 13.7914C16.4281 13.6226 15.5874 12.7062 14.6297 11.7549C13.0402 10.1759 12.8565 10.026 12.5211 10.0337C12.319 10.0383 12.0896 10.0678 12.0112 10.099ZM67.881 12.1586L67.568 12.4716V15.0045V17.5374L67.881 17.8504L68.1939 18.1634H74.7281H81.2623L81.5628 17.905L81.8632 17.6465V15.0045V12.3625L81.5628 12.104L81.2623 11.8456H74.7281H68.1939L67.881 12.1586ZM29.3629 23.4646C28.7698 23.7223 28.6976 24.0619 28.6979 26.5926C28.698 29.149 28.7745 29.4659 29.4472 29.6954C29.9332 29.861 50.3902 29.8911 50.9811 29.7269C51.7591 29.5109 51.7697 29.4713 51.8059 26.655C51.842 23.8478 51.8201 23.7449 51.1261 23.4549C50.5819 23.2276 29.8874 23.2368 29.3629 23.4646Z" clip-rule="evenodd" fill-rule="evenodd"></path>
</svg>